<svg id="svg" xmlns="http://www.w3.org/2000/svg" xmlns:xlink="http://www.w3.org/1999/xlink" width="400" height="400" viewBox="0, 0, 400,400"><g id="svgg"><path id="path0" d="M157.244 13.758 C 155.669 14.631,155.229 15.922,155.214 19.714 C 155.200 23.270,154.754 24.641,153.206 25.887 C 152.752 26.252,148.460 26.378,136.119 26.387 C 115.582 26.403,116.400 26.123,116.400 33.149 C 116.400 36.624,116.361 36.778,115.169 37.969 L 113.938 39.200 103.988 39.200 C 90.896 39.200,90.800 39.249,90.800 45.949 C 90.800 51.114,89.914 52.000,84.749 52.000 C 78.907 52.000,78.000 52.912,78.000 58.788 C 78.000 63.962,77.129 64.800,71.749 64.800 C 65.638 64.800,64.800 65.643,64.800 71.788 C 64.800 77.134,63.957 78.000,58.749 78.000 C 52.907 78.000,52.000 78.912,52.000 84.788 C 52.000 89.898,51.098 90.800,45.988 90.800 C 39.232 90.800,39.200 90.863,39.200 103.949 L 39.200 113.938 37.969 115.169 C 36.778 116.361,36.624 116.400,33.149 116.400 C 26.123 116.400,26.403 115.582,26.387 136.119 C 26.377 149.681,26.274 152.732,25.810 153.346 C 24.759 154.733,23.230 155.200,19.734 155.200 C 12.972 155.200,13.200 154.529,13.200 174.439 C 13.200 196.226,13.435 196.573,26.600 194.194 C 28.796 193.797,32.794 193.613,39.340 193.608 L 48.880 193.600 50.240 192.240 L 51.600 190.880 51.600 174.602 C 51.600 154.390,51.456 154.800,58.562 154.800 C 64.039 154.800,63.600 153.151,63.603 173.700 C 63.606 192.854,63.525 192.240,66.257 194.041 C 67.714 195.002,73.663 195.081,78.265 194.200 C 79.989 193.870,82.780 193.600,84.467 193.600 C 89.204 193.600,89.200 193.611,89.201 180.753 C 89.203 167.308,89.697 166.405,97.038 166.401 C 102.298 166.399,102.000 167.086,102.001 154.969 C 102.003 141.734,102.518 140.805,109.838 140.801 C 114.606 140.800,114.799 140.603,114.801 135.769 C 114.804 129.670,116.528 128.004,122.838 128.001 C 127.865 128.000,127.999 127.863,128.001 122.769 C 128.004 116.512,129.684 114.804,135.838 114.801 C 140.606 114.800,140.799 114.603,140.801 109.769 C 140.805 102.520,141.751 102.003,155.038 102.001 C 167.109 102.000,166.399 102.314,166.401 96.969 C 166.405 89.707,167.335 89.203,180.753 89.201 C 193.611 89.200,193.600 89.204,193.600 84.467 C 193.600 82.780,193.870 79.989,194.200 78.265 C 195.081 73.663,195.002 67.714,194.041 66.257 C 192.240 63.525,192.854 63.606,173.700 63.603 C 153.151 63.600,154.800 64.039,154.800 58.562 C 154.800 51.456,154.390 51.600,174.602 51.600 L 190.880 51.600 192.240 50.240 L 193.600 48.880 193.608 39.340 C 193.613 32.794,193.797 28.796,194.194 26.600 C 195.633 18.637,195.028 15.518,191.720 13.847 C 189.983 12.969,158.812 12.889,157.244 13.758 M208.600 13.865 C 205.369 15.568,204.780 18.705,206.206 26.600 C 206.603 28.796,206.787 32.794,206.792 39.340 L 206.800 48.880 208.160 50.240 L 209.520 51.600 225.798 51.600 C 246.010 51.600,245.600 51.456,245.600 58.562 C 245.600 64.039,247.249 63.600,226.700 63.603 C 207.546 63.606,208.160 63.525,206.359 66.257 C 205.398 67.714,205.319 73.663,206.200 78.265 C 206.530 79.989,206.800 82.780,206.800 84.467 C 206.800 89.204,206.789 89.200,219.647 89.201 C 233.092 89.203,233.995 89.697,233.999 97.038 C 234.001 102.298,233.314 102.000,245.431 102.001 C 258.666 102.003,259.595 102.518,259.599 109.838 C 259.600 114.606,259.797 114.799,264.631 114.801 C 270.730 114.804,272.396 116.528,272.399 122.838 C 272.400 127.865,272.537 127.999,277.631 128.001 C 283.888 128.004,285.596 129.684,285.599 135.838 C 285.600 140.606,285.797 140.799,290.631 140.801 C 297.880 140.805,298.397 141.751,298.399 155.038 C 298.400 167.109,298.086 166.399,303.431 166.401 C 310.693 166.405,311.197 167.335,311.199 180.753 C 311.200 193.611,311.196 193.600,315.933 193.600 C 317.620 193.600,320.411 193.870,322.135 194.200 C 326.737 195.081,332.686 195.002,334.143 194.041 C 336.875 192.240,336.794 192.854,336.797 173.700 C 336.800 153.151,336.361 154.800,341.838 154.800 C 348.944 154.800,348.800 154.390,348.800 174.602 L 348.800 190.880 350.160 192.240 L 351.520 193.600 361.060 193.608 C 367.606 193.613,371.604 193.797,373.800 194.194 C 386.969 196.573,387.200 196.232,387.200 174.400 C 387.200 154.408,387.478 155.200,380.454 155.200 C 377.056 155.200,376.899 155.159,375.473 153.890 L 374.000 152.580 374.000 136.070 C 374.000 115.526,374.302 116.400,367.212 116.400 C 363.781 116.400,363.620 116.359,362.431 115.169 L 361.200 113.938 361.200 103.949 C 361.200 90.863,361.168 90.800,354.412 90.800 C 349.302 90.800,348.400 89.898,348.400 84.788 C 348.400 78.912,347.493 78.000,341.651 78.000 C 336.443 78.000,335.600 77.134,335.600 71.788 C 335.600 65.730,334.721 64.800,328.994 64.800 C 323.402 64.800,322.422 63.895,322.409 58.719 C 322.394 52.914,321.475 52.000,315.651 52.000 C 310.497 52.000,309.600 51.109,309.600 45.988 C 309.600 39.232,309.537 39.200,296.451 39.200 L 286.462 39.200 285.231 37.969 C 284.041 36.780,284.000 36.619,284.000 33.188 C 284.000 26.100,284.876 26.403,264.320 26.387 C 251.948 26.378,247.648 26.252,247.194 25.887 C 245.654 24.648,245.200 23.268,245.200 19.833 C 245.200 15.984,244.727 14.589,243.142 13.770 C 241.418 12.879,210.309 12.964,208.600 13.865 M191.521 19.200 C 191.587 21.070,191.429 23.365,191.169 24.300 L 190.696 26.000 174.395 26.000 L 158.093 26.000 157.852 25.100 C 157.521 23.863,157.536 16.197,157.871 15.862 C 158.020 15.713,165.625 15.638,174.771 15.696 L 191.400 15.800 191.521 19.200 M242.721 19.600 C 242.787 21.690,242.734 23.985,242.603 24.700 L 242.364 26.000 226.045 26.000 L 209.727 26.000 209.263 24.454 C 208.767 22.796,208.621 16.312,209.071 15.862 C 209.220 15.713,216.825 15.638,225.971 15.696 L 242.600 15.800 242.721 19.600 M154.167 29.043 C 155.523 29.563,155.037 35.917,153.522 37.481 L 152.243 38.800 135.764 38.800 C 121.107 38.800,119.259 38.730,119.043 38.167 C 118.713 37.307,118.733 29.400,119.067 29.067 C 119.400 28.733,153.301 28.710,154.167 29.043 M281.517 33.000 C 281.581 35.200,281.533 37.405,281.409 37.900 L 281.185 38.800 264.711 38.800 L 248.238 38.800 246.919 37.522 C 245.474 36.121,244.840 29.576,246.100 29.063 C 246.375 28.951,254.430 28.891,264.000 28.929 L 281.400 29.000 281.517 33.000 M115.367 41.843 C 116.723 42.363,116.237 48.717,114.722 50.281 L 113.443 51.600 103.564 51.600 C 94.925 51.600,93.655 51.521,93.443 50.967 C 93.113 50.107,93.133 42.200,93.467 41.867 C 93.800 41.533,114.502 41.511,115.367 41.843 M307.117 45.800 C 307.181 48.000,307.133 50.205,307.009 50.700 L 306.785 51.600 296.911 51.600 L 287.038 51.600 285.719 50.322 C 284.426 49.068,284.400 48.975,284.400 45.555 C 284.400 41.252,283.197 41.642,296.200 41.728 L 307.000 41.800 307.117 45.800 M89.767 54.643 C 91.123 55.163,90.637 61.517,89.122 63.081 C 87.616 64.635,81.176 65.156,80.643 63.767 C 80.313 62.907,80.333 55.000,80.667 54.667 C 81.000 54.333,88.907 54.313,89.767 54.643 M319.917 58.600 C 320.093 64.633,320.246 64.400,316.111 64.400 C 311.040 64.400,310.000 63.371,310.000 58.355 C 310.000 54.202,309.682 54.428,315.400 54.525 L 319.800 54.600 319.917 58.600 M153.200 65.200 C 154.414 66.414,154.392 74.193,153.171 75.746 L 152.342 76.800 141.647 76.800 C 128.645 76.800,129.456 77.118,129.257 71.944 C 129.097 67.787,129.592 66.287,131.519 65.091 C 133.314 63.978,152.072 64.072,153.200 65.200 M268.814 65.072 C 270.794 66.242,271.305 67.747,271.143 71.944 C 270.944 77.118,271.755 76.800,258.753 76.800 L 248.058 76.800 247.229 75.746 C 246.008 74.193,245.986 66.414,247.200 65.200 C 248.330 64.070,266.931 63.960,268.814 65.072 M191.120 67.280 C 191.734 67.894,191.764 74.609,191.161 76.340 L 190.722 77.600 174.351 77.600 L 157.980 77.600 157.590 76.574 C 157.021 75.078,157.091 67.869,157.680 67.280 C 158.370 66.590,190.430 66.590,191.120 67.280 M242.720 67.280 C 243.309 67.869,243.379 75.078,242.810 76.574 L 242.420 77.600 226.049 77.600 L 209.678 77.600 209.239 76.340 C 208.636 74.609,208.666 67.894,209.280 67.280 C 209.970 66.590,242.030 66.590,242.720 67.280 M76.967 67.443 C 78.296 67.953,77.840 74.498,76.359 76.186 L 75.117 77.600 71.401 77.600 C 68.382 77.600,67.640 77.481,67.443 76.967 C 67.112 76.106,67.133 67.800,67.467 67.467 C 67.800 67.133,76.106 67.112,76.967 67.443 M333.117 71.600 C 333.291 77.876,333.470 77.600,329.221 77.600 C 325.724 77.600,325.630 77.575,324.228 76.253 L 322.800 74.906 322.800 71.286 C 322.800 66.974,322.440 67.229,328.400 67.325 L 333.000 67.400 333.117 71.600 M127.600 78.400 C 128.845 79.645,128.793 87.330,127.530 88.674 C 126.258 90.029,105.341 90.141,104.000 88.800 C 102.064 86.864,103.105 79.790,105.549 78.273 C 107.317 77.176,126.486 77.286,127.600 78.400 M294.784 78.254 C 297.280 79.729,298.369 86.831,296.400 88.800 C 295.105 90.095,274.312 90.033,272.926 88.730 C 271.606 87.491,271.511 79.689,272.800 78.400 C 273.916 77.284,292.928 77.158,294.784 78.254 M153.774 80.390 C 155.511 81.051,155.332 87.213,153.522 89.081 L 152.243 90.400 142.312 90.400 L 132.380 90.400 131.990 89.374 C 131.423 87.883,131.492 81.068,132.080 80.480 C 132.680 79.880,152.219 79.799,153.774 80.390 M268.320 80.480 C 268.908 81.068,268.977 87.883,268.410 89.374 L 268.020 90.400 258.129 90.400 L 248.238 90.400 246.919 89.122 C 245.159 87.416,244.854 81.074,246.500 80.412 C 247.929 79.838,267.739 79.899,268.320 80.480 M63.767 80.643 C 65.123 81.163,64.637 87.517,63.122 89.081 C 61.616 90.635,55.176 91.156,54.643 89.767 C 54.313 88.907,54.333 81.000,54.667 80.667 C 55.000 80.333,62.907 80.313,63.767 80.643 M345.917 84.600 C 346.093 90.633,346.246 90.400,342.111 90.400 C 337.040 90.400,336.000 89.371,336.000 84.355 C 336.000 80.202,335.682 80.428,341.400 80.525 L 345.800 80.600 345.917 84.600 M101.600 91.200 C 102.845 92.445,102.793 100.130,101.530 101.474 C 100.291 102.794,92.489 102.889,91.200 101.600 C 89.264 99.664,90.305 92.590,92.749 91.073 C 94.405 90.046,100.533 90.133,101.600 91.200 M307.584 91.054 C 310.080 92.529,311.169 99.631,309.200 101.600 C 307.955 102.845,300.270 102.793,298.926 101.530 C 297.606 100.291,297.511 92.489,298.800 91.200 C 299.869 90.131,305.853 90.032,307.584 91.054 M128.174 93.190 C 129.911 93.851,129.732 100.013,127.922 101.881 L 126.643 103.200 116.512 103.200 L 106.380 103.200 105.990 102.174 C 105.423 100.683,105.492 93.868,106.080 93.280 C 106.680 92.680,126.618 92.599,128.174 93.190 M294.320 93.280 C 294.908 93.868,294.977 100.683,294.410 102.174 L 294.020 103.200 283.929 103.200 L 273.838 103.200 272.519 101.922 C 270.759 100.216,270.454 93.874,272.100 93.212 C 273.529 92.638,293.739 92.699,294.320 93.280 M50.967 93.443 C 51.521 93.655,51.600 94.922,51.600 103.524 L 51.600 113.362 50.322 114.681 C 48.816 116.235,42.376 116.756,41.843 115.367 C 41.511 114.502,41.533 93.800,41.867 93.467 C 42.200 93.133,50.107 93.113,50.967 93.443 M358.712 103.800 C 358.856 117.117,359.205 116.000,354.911 116.000 C 351.547 116.000,351.397 115.960,350.119 114.722 L 348.800 113.443 348.800 103.555 C 348.800 96.022,348.919 93.617,349.300 93.459 C 349.575 93.344,351.780 93.284,354.200 93.325 L 358.600 93.400 358.712 103.800 M88.800 104.000 C 89.502 104.702,89.600 105.333,89.600 109.156 C 89.600 111.552,89.877 114.973,90.216 116.760 C 92.016 126.246,90.780 128.400,83.541 128.400 C 77.205 128.400,77.600 129.175,77.600 116.762 C 77.600 105.828,77.702 105.268,79.949 103.873 C 81.605 102.846,87.733 102.933,88.800 104.000 M320.384 103.854 C 322.696 105.220,322.800 105.775,322.800 116.762 C 322.800 129.162,323.184 128.400,316.926 128.400 C 310.405 128.400,310.800 129.217,310.800 115.730 C 310.800 102.497,310.517 103.200,315.838 103.200 C 318.303 103.200,319.590 103.385,320.384 103.854 M168.800 104.400 C 168.105 105.095,168.000 105.733,168.000 109.247 L 168.000 113.294 166.447 114.847 L 164.894 116.400 154.447 116.400 C 141.582 116.400,142.400 116.003,142.400 122.247 L 142.400 126.494 140.847 128.047 L 139.294 129.600 135.247 129.600 C 131.733 129.600,131.095 129.705,130.400 130.400 C 129.705 131.095,129.600 131.733,129.600 135.247 L 129.600 139.294 128.047 140.847 L 126.494 142.400 122.247 142.400 C 116.003 142.400,116.400 141.582,116.400 154.447 L 116.400 164.894 114.847 166.447 L 113.294 168.000 109.247 168.000 C 102.922 168.000,103.600 164.131,103.600 200.200 C 103.600 236.269,102.922 232.400,109.247 232.400 L 113.294 232.400 114.847 233.953 L 116.400 235.506 116.400 245.953 C 116.400 258.818,116.003 258.000,122.247 258.000 L 126.494 258.000 128.047 259.553 L 129.600 261.106 129.600 265.153 C 129.600 270.636,129.764 270.800,135.247 270.800 L 139.294 270.800 140.847 272.353 L 142.400 273.906 142.400 278.153 C 142.400 284.397,141.582 284.000,154.447 284.000 L 164.894 284.000 166.447 285.553 L 168.000 287.106 168.000 291.153 C 168.000 297.478,164.131 296.800,200.200 296.800 C 236.269 296.800,232.400 297.478,232.400 291.153 L 232.400 287.106 233.953 285.553 L 235.506 284.000 245.953 284.000 C 258.818 284.000,258.000 284.397,258.000 278.153 L 258.000 273.906 259.553 272.353 L 261.106 270.800 265.153 270.800 C 270.636 270.800,270.800 270.636,270.800 265.153 L 270.800 261.106 272.353 259.553 L 273.906 258.000 278.153 258.000 C 284.397 258.000,284.000 258.818,284.000 245.953 L 284.000 235.506 285.553 233.953 L 287.106 232.400 291.153 232.400 C 297.478 232.400,296.800 236.269,296.800 200.200 C 296.800 164.131,297.478 168.000,291.153 168.000 L 287.106 168.000 285.553 166.447 L 284.000 164.894 284.000 154.447 C 284.000 141.582,284.397 142.400,278.153 142.400 L 273.906 142.400 272.353 140.847 L 270.800 139.294 270.800 135.247 C 270.800 129.764,270.636 129.600,265.153 129.600 L 261.106 129.600 259.553 128.047 L 258.000 126.494 258.000 122.247 C 258.000 116.003,258.818 116.400,245.953 116.400 L 235.506 116.400 233.953 114.847 L 232.400 113.294 232.400 109.247 C 232.400 102.922,236.269 103.600,200.200 103.600 C 170.133 103.600,169.586 103.614,168.800 104.400 M230.274 105.670 C 231.114 106.459,231.200 106.887,231.200 110.290 C 231.200 117.459,231.464 117.600,244.854 117.600 C 257.397 117.600,256.800 117.316,256.800 123.290 C 256.800 129.710,257.853 130.800,264.054 130.800 C 269.193 130.800,269.599 131.193,269.601 136.170 C 269.604 142.209,271.036 143.600,277.254 143.600 C 283.056 143.600,282.800 143.055,282.801 155.370 C 282.803 168.577,283.139 169.200,290.254 169.200 C 293.291 169.200,293.870 169.314,294.674 170.070 L 295.600 170.939 295.600 200.144 L 295.600 229.348 294.730 230.274 C 293.948 231.107,293.504 231.200,290.310 231.200 C 283.137 231.200,282.803 231.811,282.801 244.974 C 282.800 257.329,283.045 256.800,277.310 256.800 C 271.048 256.800,269.604 258.181,269.601 264.174 C 269.599 269.161,269.171 269.600,264.310 269.600 C 258.208 269.600,256.804 271.017,256.801 277.174 C 256.799 283.066,257.352 282.800,245.110 282.800 C 231.869 282.800,231.204 283.152,231.201 290.174 C 231.200 293.292,231.089 293.867,230.330 294.674 L 229.461 295.600 200.256 295.600 L 171.052 295.600 170.126 294.730 C 169.290 293.945,169.200 293.507,169.199 290.230 C 169.196 283.150,168.544 282.800,155.346 282.800 C 143.063 282.800,143.601 283.055,143.599 277.230 C 143.596 271.027,142.202 269.600,136.146 269.600 C 131.233 269.600,130.801 269.166,130.799 264.230 C 130.796 258.191,129.364 256.800,123.146 256.800 C 117.347 256.800,117.600 257.333,117.600 245.110 C 117.600 231.869,117.248 231.204,110.226 231.201 C 107.108 231.200,106.533 231.089,105.726 230.330 L 104.800 229.461 104.800 200.256 L 104.800 171.052 105.670 170.126 C 106.452 169.293,106.896 169.200,110.090 169.200 C 117.263 169.200,117.597 168.589,117.599 155.426 C 117.600 143.071,117.355 143.600,123.090 143.600 C 129.352 143.600,130.796 142.219,130.799 136.226 C 130.801 131.222,131.218 130.801,136.170 130.799 C 142.209 130.796,143.600 129.364,143.600 123.146 C 143.600 117.347,143.067 117.600,155.290 117.600 C 168.531 117.600,169.196 117.248,169.199 110.226 C 169.200 107.108,169.311 106.533,170.070 105.726 L 170.939 104.800 200.144 104.800 L 229.348 104.800 230.274 105.670 M102.174 105.990 C 103.167 106.368,103.200 106.492,103.200 109.871 C 103.200 114.960,102.176 116.000,97.161 116.000 L 93.678 116.000 93.239 114.740 C 92.637 113.014,92.667 106.693,93.280 106.080 C 93.868 105.492,100.683 105.423,102.174 105.990 M307.120 106.080 C 307.720 106.680,307.801 126.618,307.210 128.174 C 306.549 129.911,300.387 129.732,298.519 127.922 L 297.200 126.643 297.200 116.509 L 297.200 106.374 298.100 106.012 C 299.480 105.458,306.551 105.511,307.120 106.080 M38.167 119.043 C 38.730 119.259,38.800 121.103,38.800 135.724 L 38.800 152.162 37.522 153.481 C 36.016 155.035,29.576 155.556,29.043 154.167 C 28.710 153.301,28.733 119.400,29.067 119.067 C 29.400 118.733,37.307 118.713,38.167 119.043 M371.511 136.000 C 371.572 145.350,371.524 153.405,371.404 153.900 C 371.009 155.524,364.695 155.242,362.919 153.522 L 361.600 152.243 361.600 135.755 C 361.600 122.942,361.711 119.220,362.100 119.059 C 362.375 118.944,364.580 118.884,367.000 118.925 L 371.400 119.000 371.511 136.000 M76.000 130.000 C 76.702 130.702,76.800 131.333,76.800 135.156 C 76.800 137.552,77.078 140.975,77.417 142.763 C 79.181 152.062,77.995 154.000,70.541 154.000 C 63.981 154.000,64.400 154.781,64.400 142.562 C 64.400 131.847,64.508 131.265,66.749 129.873 C 68.414 128.840,74.929 128.929,76.000 130.000 M333.584 129.854 C 335.890 131.216,336.000 131.794,336.000 142.562 C 336.000 154.724,336.370 154.000,330.162 154.000 C 326.518 154.000,325.760 153.884,324.762 153.173 L 323.600 152.346 323.600 141.649 C 323.600 130.685,323.688 130.018,325.200 129.478 C 326.677 128.950,332.495 129.211,333.584 129.854 M89.381 132.064 C 90.357 132.509,90.400 132.672,90.400 135.945 C 90.400 140.951,89.354 142.000,84.361 142.000 L 80.878 142.000 80.439 140.740 C 79.837 139.014,79.867 132.693,80.480 132.080 C 81.108 131.452,88.010 131.440,89.381 132.064 M319.920 132.080 C 320.520 132.680,320.601 152.219,320.010 153.774 C 319.349 155.511,313.187 155.332,311.319 153.522 L 310.000 152.243 310.000 142.309 C 310.000 132.380,310.001 132.374,310.900 132.012 C 312.280 131.458,319.351 131.511,319.920 132.080 M76.581 157.664 L 77.600 158.128 77.600 174.425 L 77.600 190.722 76.340 191.161 C 74.609 191.764,67.894 191.734,67.280 191.120 C 66.590 190.430,66.590 158.370,67.280 157.680 C 67.909 157.051,75.207 157.038,76.581 157.664 M333.120 157.680 C 333.810 158.370,333.810 190.430,333.120 191.120 C 332.520 191.720,326.397 191.761,324.300 191.179 L 322.800 190.762 322.800 174.368 L 322.800 157.974 323.700 157.612 C 325.084 157.056,332.550 157.110,333.120 157.680 M25.367 157.843 C 25.930 158.059,26.000 159.895,26.000 174.427 L 26.000 190.769 24.399 191.200 C 23.519 191.437,21.224 191.579,19.299 191.516 L 15.800 191.400 15.695 175.000 C 15.638 165.981,15.677 158.376,15.783 158.100 C 15.985 157.573,24.097 157.355,25.367 157.843 M384.600 174.600 L 384.600 191.400 381.200 191.521 C 379.330 191.587,377.035 191.429,376.100 191.169 L 374.400 190.696 374.400 174.377 C 374.400 159.174,374.448 158.046,375.100 157.870 C 375.485 157.766,377.780 157.707,380.200 157.740 L 384.600 157.800 384.600 174.600 M15.317 206.500 C 13.194 208.821,13.200 208.768,13.200 225.961 C 13.200 245.871,12.972 245.200,19.734 245.200 C 23.230 245.200,24.759 245.667,25.810 247.054 C 26.275 247.668,26.377 250.725,26.387 264.320 C 26.403 284.876,26.100 284.000,33.188 284.000 C 36.619 284.000,36.780 284.041,37.969 285.231 L 39.200 286.462 39.200 296.451 C 39.200 309.537,39.232 309.600,45.988 309.600 C 51.109 309.600,52.000 310.497,52.000 315.651 C 52.000 321.493,52.912 322.400,58.788 322.400 C 63.962 322.400,64.800 323.271,64.800 328.651 C 64.800 334.762,65.643 335.600,71.788 335.600 C 77.134 335.600,78.000 336.443,78.000 341.651 C 78.000 347.493,78.912 348.400,84.788 348.400 C 89.898 348.400,90.800 349.302,90.800 354.412 C 90.800 361.168,90.863 361.200,103.949 361.200 L 113.938 361.200 115.169 362.431 C 116.359 363.620,116.400 363.781,116.400 367.212 C 116.400 374.300,115.524 373.997,136.080 374.013 C 148.452 374.022,152.752 374.148,153.206 374.513 C 154.746 375.752,155.200 377.132,155.200 380.567 C 155.200 387.461,154.445 387.200,174.400 387.200 C 196.232 387.200,196.573 386.969,194.194 373.800 C 193.797 371.604,193.613 367.606,193.608 361.060 L 193.600 351.520 192.240 350.160 L 190.880 348.800 174.602 348.800 C 154.390 348.800,154.800 348.944,154.800 341.838 C 154.800 336.361,153.151 336.800,173.700 336.797 C 192.854 336.794,192.240 336.875,194.041 334.143 C 195.002 332.686,195.081 326.737,194.200 322.135 C 193.870 320.411,193.600 317.620,193.600 315.933 C 193.600 311.196,193.611 311.200,180.753 311.199 C 167.308 311.197,166.405 310.703,166.401 303.362 C 166.399 298.102,167.086 298.400,154.969 298.399 C 141.734 298.397,140.805 297.882,140.801 290.562 C 140.800 285.794,140.603 285.601,135.769 285.599 C 129.670 285.596,128.004 283.872,128.001 277.562 C 128.000 272.535,127.863 272.401,122.769 272.399 C 116.512 272.396,114.804 270.716,114.801 264.562 C 114.800 259.794,114.603 259.601,109.769 259.599 C 102.520 259.595,102.003 258.649,102.001 245.362 C 102.000 233.291,102.314 234.001,96.969 233.999 C 89.707 233.995,89.203 233.065,89.201 219.647 C 89.200 206.789,89.204 206.800,84.467 206.800 C 82.780 206.800,79.989 206.530,78.265 206.200 C 73.663 205.319,67.714 205.398,66.257 206.359 C 63.525 208.160,63.606 207.546,63.603 226.700 C 63.600 247.249,64.039 245.600,58.562 245.600 C 51.456 245.600,51.600 246.010,51.600 225.798 L 51.600 209.520 50.240 208.160 L 48.880 206.800 39.340 206.792 C 32.794 206.787,28.796 206.603,26.600 206.206 C 21.377 205.262,16.328 205.394,15.317 206.500 M322.000 206.215 C 320.570 206.509,317.930 206.762,316.133 206.775 L 312.865 206.800 312.033 208.147 C 311.246 209.419,311.200 210.061,311.199 219.647 C 311.197 233.092,310.703 233.995,303.362 233.999 C 298.102 234.001,298.400 233.314,298.399 245.431 C 298.397 258.666,297.882 259.595,290.562 259.599 C 285.794 259.600,285.601 259.797,285.599 264.631 C 285.596 270.730,283.872 272.396,277.562 272.399 C 272.535 272.400,272.401 272.537,272.399 277.631 C 272.396 283.888,270.716 285.596,264.562 285.599 C 259.794 285.600,259.601 285.797,259.599 290.631 C 259.595 297.880,258.649 298.397,245.362 298.399 C 233.291 298.400,234.001 298.086,233.999 303.431 C 233.995 310.693,233.065 311.197,219.647 311.199 C 206.789 311.200,206.800 311.196,206.800 315.933 C 206.800 317.620,206.530 320.411,206.200 322.135 C 205.319 326.737,205.398 332.686,206.359 334.143 C 208.160 336.875,207.546 336.794,226.700 336.797 C 247.249 336.800,245.600 336.361,245.600 341.838 C 245.600 348.944,246.010 348.800,225.798 348.800 L 209.520 348.800 208.160 350.160 L 206.800 351.520 206.792 361.060 C 206.787 367.606,206.603 371.604,206.206 373.800 C 203.827 386.969,204.168 387.200,226.000 387.200 C 245.955 387.200,245.200 387.461,245.200 380.567 C 245.200 377.132,245.654 375.752,247.194 374.513 C 247.648 374.148,251.948 374.022,264.320 374.013 C 284.876 373.997,284.000 374.300,284.000 367.212 C 284.000 363.781,284.041 363.620,285.231 362.431 L 286.462 361.200 296.451 361.200 C 309.537 361.200,309.600 361.168,309.600 354.412 C 309.600 349.302,310.502 348.400,315.612 348.400 C 321.466 348.400,322.394 347.488,322.409 341.720 C 322.422 336.509,323.394 335.600,328.955 335.600 C 334.724 335.600,335.600 334.684,335.600 328.651 C 335.600 323.271,336.438 322.400,341.612 322.400 C 347.488 322.400,348.400 321.493,348.400 315.651 C 348.400 310.497,349.291 309.600,354.412 309.600 C 361.168 309.600,361.200 309.537,361.200 296.451 L 361.200 286.462 362.431 285.231 C 363.620 284.041,363.781 284.000,367.212 284.000 C 374.302 284.000,374.000 284.874,374.000 264.330 L 374.000 247.820 375.473 246.510 C 376.901 245.239,377.051 245.200,380.493 245.200 C 387.456 245.200,387.200 245.935,387.200 225.961 C 387.200 204.174,386.965 203.827,373.800 206.206 C 371.604 206.603,367.606 206.787,361.060 206.792 L 351.520 206.800 350.160 208.160 L 348.800 209.520 348.800 225.798 C 348.800 246.010,348.944 245.600,341.838 245.600 C 336.361 245.600,336.800 247.249,336.797 226.700 C 336.794 207.546,336.875 208.160,334.143 206.359 C 332.743 205.436,326.155 205.358,322.000 206.215 M24.500 209.221 L 26.000 209.638 26.000 226.011 L 26.000 242.385 25.100 242.609 C 24.605 242.732,22.310 242.781,20.000 242.717 L 15.800 242.600 15.695 226.200 C 15.638 217.181,15.677 209.576,15.783 209.300 C 16.024 208.672,22.318 208.615,24.500 209.221 M76.340 209.239 L 77.600 209.678 77.600 226.049 L 77.600 242.420 76.574 242.810 C 75.078 243.379,67.869 243.309,67.280 242.720 C 66.590 242.030,66.590 209.970,67.280 209.280 C 67.894 208.666,74.609 208.636,76.340 209.239 M333.120 209.280 C 333.810 209.970,333.810 242.030,333.120 242.720 C 332.531 243.309,325.322 243.379,323.826 242.810 L 322.800 242.420 322.800 226.021 L 322.800 209.623 324.100 209.248 C 326.056 208.683,332.546 208.706,333.120 209.280 M384.600 225.800 L 384.600 242.600 380.800 242.721 C 378.710 242.787,376.415 242.734,375.700 242.603 L 374.400 242.364 374.400 226.040 L 374.400 209.716 375.700 209.292 C 376.415 209.059,378.710 208.898,380.800 208.934 L 384.600 209.000 384.600 225.800 M37.481 246.878 L 38.800 248.157 38.800 264.671 L 38.800 281.185 37.900 281.409 C 37.405 281.533,35.200 281.581,33.000 281.517 L 29.000 281.400 28.889 264.400 C 28.828 255.050,28.876 246.995,28.996 246.500 C 29.391 244.876,35.705 245.158,37.481 246.878 M89.081 246.878 L 90.400 248.157 90.400 258.088 L 90.400 268.020 89.374 268.410 C 87.883 268.977,81.068 268.908,80.480 268.320 C 79.880 267.720,79.799 248.181,80.390 246.626 C 81.051 244.889,87.213 245.068,89.081 246.878 M320.010 246.626 C 320.601 248.181,320.520 267.720,319.920 268.320 C 319.332 268.908,312.517 268.977,311.026 268.410 L 310.000 268.020 310.000 258.129 L 310.000 248.238 311.278 246.919 C 313.073 245.067,319.337 244.857,320.010 246.626 M371.404 246.500 C 371.524 246.995,371.572 255.050,371.511 264.400 L 371.400 281.400 367.400 281.517 C 365.200 281.581,362.995 281.533,362.500 281.409 L 361.600 281.185 361.600 264.711 L 361.600 248.238 362.878 246.919 C 364.585 245.159,371.001 244.843,371.404 246.500 M75.874 247.270 C 77.228 248.542,77.340 269.060,76.000 270.400 C 74.009 272.391,66.533 271.288,65.054 268.784 C 63.958 266.929,64.084 248.316,65.200 247.200 C 66.449 245.951,74.527 246.004,75.874 247.270 M335.200 247.200 C 336.330 248.330,336.440 266.931,335.328 268.814 C 334.158 270.794,332.653 271.305,328.456 271.143 C 323.282 270.944,323.600 271.754,323.600 258.757 L 323.600 248.067 324.700 247.246 C 326.328 246.031,333.998 245.998,335.200 247.200 M101.881 272.478 L 103.200 273.757 103.200 283.888 L 103.200 294.020 102.174 294.410 C 100.683 294.977,93.868 294.908,93.280 294.320 C 92.680 293.720,92.599 273.782,93.190 272.226 C 93.851 270.489,100.013 270.668,101.881 272.478 M307.210 272.226 C 307.801 273.782,307.720 293.720,307.120 294.320 C 306.532 294.908,299.717 294.977,298.226 294.410 L 297.200 294.020 297.200 283.929 L 297.200 273.838 298.478 272.519 C 300.273 270.667,306.537 270.457,307.210 272.226 M88.674 272.870 C 90.029 274.142,90.141 295.059,88.800 296.400 C 86.831 298.369,79.729 297.280,78.254 294.784 C 77.158 292.928,77.284 273.916,78.400 272.800 C 79.645 271.555,87.330 271.607,88.674 272.870 M322.000 272.800 C 323.116 273.916,323.242 292.928,322.146 294.784 C 320.671 297.280,313.569 298.369,311.600 296.400 C 310.305 295.105,310.367 274.312,311.670 272.926 C 312.909 271.606,320.711 271.511,322.000 272.800 M50.281 285.678 L 51.600 286.957 51.600 296.871 L 51.600 306.785 50.700 307.009 C 50.205 307.133,48.000 307.181,45.800 307.117 L 41.800 307.000 41.688 296.600 C 41.544 283.283,41.195 284.400,45.489 284.400 C 48.853 284.400,49.003 284.440,50.281 285.678 M358.605 285.300 C 358.726 285.795,358.774 290.880,358.712 296.600 L 358.600 307.000 354.600 307.117 C 352.400 307.181,350.195 307.133,349.700 307.009 L 348.800 306.785 348.800 296.911 L 348.800 287.038 350.078 285.719 C 351.785 283.959,358.200 283.643,358.605 285.300 M127.881 298.478 C 129.733 300.273,129.943 306.537,128.174 307.210 C 126.618 307.801,106.680 307.720,106.080 307.120 C 105.492 306.532,105.423 299.717,105.990 298.226 L 106.380 297.200 116.471 297.200 L 126.562 297.200 127.881 298.478 M294.410 298.226 C 294.977 299.717,294.908 306.532,294.320 307.120 C 293.720 307.720,273.782 307.801,272.226 307.210 C 270.489 306.549,270.668 300.387,272.478 298.519 L 273.757 297.200 283.888 297.200 L 294.020 297.200 294.410 298.226 M101.474 298.870 C 102.794 300.109,102.889 307.911,101.600 309.200 C 99.631 311.169,92.529 310.080,91.054 307.584 C 90.032 305.853,90.131 299.869,91.200 298.800 C 92.445 297.555,100.130 297.607,101.474 298.870 M309.200 298.800 C 310.269 299.869,310.368 305.853,309.346 307.584 C 307.871 310.080,300.769 311.169,298.800 309.200 C 297.555 307.955,297.607 300.270,298.870 298.926 C 300.109 297.606,307.911 297.511,309.200 298.800 M63.081 311.278 C 64.376 312.534,64.400 312.621,64.400 316.071 C 64.400 320.252,64.639 320.093,58.600 319.917 L 54.600 319.800 54.483 315.800 C 54.307 309.767,54.154 310.000,58.289 310.000 C 61.653 310.000,61.803 310.040,63.081 311.278 M153.481 311.278 C 155.333 313.073,155.543 319.337,153.774 320.010 C 152.219 320.601,132.680 320.520,132.080 319.920 C 131.492 319.332,131.423 312.517,131.990 311.026 L 132.380 310.000 142.271 310.000 L 152.162 310.000 153.481 311.278 M268.410 311.026 C 268.977 312.517,268.908 319.332,268.320 319.920 C 267.720 320.520,248.181 320.601,246.626 320.010 C 244.889 319.349,245.068 313.187,246.878 311.319 L 248.157 310.000 258.088 310.000 L 268.020 310.000 268.410 311.026 M345.809 310.900 C 345.933 311.395,345.981 313.600,345.917 315.800 L 345.800 319.800 341.800 319.917 C 335.767 320.093,336.000 320.246,336.000 316.111 C 336.000 311.033,337.026 310.000,342.071 310.000 C 345.382 310.000,345.598 310.052,345.809 310.900 M127.474 311.670 C 128.794 312.909,128.889 320.711,127.600 322.000 C 126.484 323.116,107.472 323.242,105.616 322.146 C 103.120 320.671,102.031 313.569,104.000 311.600 C 105.295 310.305,126.088 310.367,127.474 311.670 M296.400 311.600 C 298.369 313.569,297.280 320.671,294.784 322.146 C 292.928 323.242,273.916 323.116,272.800 322.000 C 271.555 320.755,271.607 313.070,272.870 311.726 C 274.142 310.371,295.059 310.259,296.400 311.600 M76.359 324.214 C 77.549 325.570,77.600 325.774,77.600 329.206 C 77.600 333.472,77.878 333.291,71.600 333.117 L 67.400 333.000 67.283 328.800 C 67.108 322.496,66.901 322.800,71.366 322.800 L 75.117 322.800 76.359 324.214 M191.161 324.060 C 191.764 325.791,191.734 332.506,191.120 333.120 C 190.430 333.810,158.370 333.810,157.680 333.120 C 157.091 332.531,157.021 325.322,157.590 323.826 L 157.980 322.800 174.351 322.800 L 190.722 322.800 191.161 324.060 M242.810 323.826 C 243.379 325.322,243.309 332.531,242.720 333.120 C 242.030 333.810,209.970 333.810,209.280 333.120 C 208.666 332.506,208.636 325.791,209.239 324.060 L 209.678 322.800 226.049 322.800 L 242.420 322.800 242.810 323.826 M333.009 323.700 C 333.132 324.195,333.181 326.490,333.117 328.800 L 333.000 333.000 328.800 333.117 C 322.511 333.291,322.800 333.482,322.800 329.140 L 322.800 325.494 324.228 324.147 C 326.123 322.360,332.593 322.031,333.009 323.700 M153.171 324.654 C 153.894 325.573,154.000 326.263,154.000 330.054 C 154.000 336.387,154.745 336.000,142.562 336.000 C 129.521 336.000,128.979 335.692,129.257 328.456 C 129.456 323.282,128.645 323.600,141.647 323.600 L 152.342 323.600 153.171 324.654 M270.224 324.168 C 272.355 325.725,271.330 333.842,268.814 335.328 C 266.931 336.440,248.330 336.330,247.200 335.200 C 245.986 333.986,246.008 326.207,247.229 324.654 L 248.058 323.600 258.753 323.600 C 267.355 323.600,269.599 323.711,270.224 324.168 M89.081 337.278 C 90.376 338.534,90.400 338.621,90.400 342.071 C 90.400 346.252,90.639 346.093,84.600 345.917 L 80.600 345.800 80.483 341.800 C 80.307 335.767,80.154 336.000,84.289 336.000 C 87.653 336.000,87.803 336.040,89.081 337.278 M319.809 336.900 C 319.933 337.395,319.981 339.600,319.917 341.800 L 319.800 345.800 315.800 345.917 C 309.767 346.093,310.000 346.246,310.000 342.111 C 310.000 337.033,311.026 336.000,316.071 336.000 C 319.382 336.000,319.598 336.052,319.809 336.900 M114.681 350.078 C 115.976 351.334,116.000 351.421,116.000 354.871 C 116.000 359.211,117.127 358.857,103.800 358.712 L 93.400 358.600 93.283 354.600 C 93.219 352.400,93.267 350.195,93.391 349.700 L 93.615 348.800 103.489 348.800 L 113.362 348.800 114.681 350.078 M307.009 349.700 C 307.133 350.195,307.181 352.400,307.117 354.600 L 307.000 358.600 296.600 358.712 C 283.283 358.856,284.400 359.205,284.400 354.911 C 284.400 351.547,284.440 351.397,285.678 350.119 L 286.957 348.800 296.871 348.800 L 306.785 348.800 307.009 349.700 M153.481 362.878 C 154.776 364.134,154.800 364.221,154.800 367.671 C 154.800 372.062,156.831 371.647,136.000 371.511 L 119.000 371.400 118.883 367.400 C 118.819 365.200,118.867 362.995,118.991 362.500 L 119.215 361.600 135.689 361.600 L 152.162 361.600 153.481 362.878 M281.409 362.500 C 281.533 362.995,281.581 365.200,281.517 367.400 L 281.400 371.400 264.400 371.511 C 255.050 371.572,246.995 371.524,246.500 371.404 C 244.876 371.009,245.158 364.695,246.878 362.919 L 248.157 361.600 264.671 361.600 L 281.185 361.600 281.409 362.500 M191.169 376.100 C 191.429 377.035,191.587 379.330,191.521 381.200 L 191.400 384.600 174.600 384.600 L 157.800 384.600 157.679 380.800 C 157.613 378.710,157.666 376.415,157.797 375.700 L 158.036 374.400 174.366 374.400 L 190.696 374.400 191.169 376.100 M242.603 375.700 C 242.734 376.415,242.787 378.710,242.721 380.800 L 242.600 384.600 225.800 384.600 L 209.000 384.600 208.879 381.200 C 208.813 379.330,208.971 377.035,209.231 376.100 L 209.704 374.400 226.034 374.400 L 242.364 374.400 242.603 375.700 " stroke="none" fill="#647c8c" fill-rule="evenodd"></path><path id="path1" d="M155.496 11.192 C 153.217 11.621,152.962 12.378,152.830 19.103 C 152.787 21.246,152.628 23.124,152.476 23.275 C 152.324 23.426,144.100 23.612,134.200 23.687 C 124.300 23.763,115.903 23.967,115.539 24.140 C 114.588 24.594,114.388 25.600,114.133 31.200 C 114.008 33.950,113.792 36.320,113.653 36.467 C 113.514 36.615,108.270 36.806,102.000 36.894 C 87.535 37.095,88.832 36.412,88.515 44.000 C 88.263 50.038,88.838 49.463,82.800 49.715 C 75.573 50.017,76.017 49.573,75.715 56.800 C 75.462 62.848,76.066 62.265,69.800 62.513 C 62.388 62.807,62.822 62.407,62.543 69.200 C 62.257 76.160,62.631 75.594,58.292 75.633 C 52.677 75.683,50.624 76.054,50.206 77.097 C 50.051 77.483,49.830 80.050,49.715 82.800 C 49.463 88.838,50.038 88.263,44.000 88.515 C 36.412 88.832,37.095 87.535,36.894 102.000 C 36.806 108.270,36.615 113.514,36.467 113.653 C 36.320 113.792,33.950 114.008,31.200 114.133 C 25.600 114.388,24.594 114.588,24.140 115.539 C 23.967 115.903,23.763 124.300,23.687 134.200 C 23.612 144.100,23.426 152.314,23.275 152.453 C 23.124 152.592,20.750 152.800,18.000 152.915 C 12.606 153.140,11.832 153.305,11.344 154.331 C 11.169 154.699,10.962 162.957,10.885 172.683 C 10.735 191.663,10.945 194.225,12.815 196.216 C 13.961 197.436,13.961 202.964,12.815 204.184 C 10.945 206.175,10.735 208.737,10.885 227.717 C 10.962 237.443,11.169 245.701,11.344 246.069 C 11.832 247.095,12.606 247.260,18.000 247.485 C 20.750 247.600,23.124 247.808,23.275 247.947 C 23.426 248.086,23.612 256.300,23.687 266.200 C 23.763 276.100,23.967 284.497,24.140 284.861 C 24.594 285.812,25.600 286.012,31.200 286.267 C 33.950 286.392,36.320 286.608,36.467 286.747 C 36.615 286.886,36.806 292.130,36.894 298.400 C 37.095 312.865,36.412 311.568,44.000 311.885 C 50.038 312.137,49.463 311.562,49.715 317.600 C 49.830 320.350,50.051 322.917,50.206 323.303 C 50.624 324.346,52.677 324.717,58.292 324.767 C 62.631 324.806,62.257 324.240,62.543 331.200 C 62.822 337.993,62.388 337.593,69.800 337.887 C 76.066 338.135,75.462 337.552,75.715 343.600 C 76.017 350.827,75.573 350.383,82.800 350.685 C 88.838 350.937,88.263 350.362,88.515 356.400 C 88.832 363.988,87.535 363.305,102.000 363.506 C 108.270 363.594,113.514 363.785,113.653 363.933 C 113.792 364.080,114.008 366.450,114.133 369.200 C 114.388 374.800,114.588 375.806,115.539 376.260 C 115.903 376.433,124.300 376.637,134.200 376.713 C 144.100 376.788,152.314 376.974,152.453 377.125 C 152.592 377.276,152.800 379.650,152.915 382.400 C 153.140 387.794,153.305 388.568,154.331 389.056 C 154.699 389.231,162.957 389.438,172.683 389.515 C 191.663 389.665,194.225 389.455,196.216 387.585 C 197.436 386.439,202.964 386.439,204.184 387.585 C 206.175 389.455,208.737 389.665,227.717 389.515 C 237.443 389.438,245.701 389.231,246.069 389.056 C 247.095 388.568,247.260 387.794,247.485 382.400 C 247.600 379.650,247.808 377.276,247.947 377.125 C 248.086 376.974,256.300 376.788,266.200 376.713 C 276.100 376.637,284.497 376.433,284.861 376.260 C 285.812 375.806,286.012 374.800,286.267 369.200 C 286.392 366.450,286.608 364.080,286.747 363.933 C 286.886 363.785,292.130 363.594,298.400 363.506 C 312.865 363.305,311.568 363.988,311.885 356.400 C 312.136 350.384,311.743 350.864,316.497 350.770 C 323.196 350.638,324.381 350.208,324.394 347.900 C 324.397 347.293,324.624 346.797,324.900 346.794 C 325.233 346.790,325.200 346.658,324.800 346.400 C 324.400 346.142,324.367 346.010,324.700 346.006 C 325.065 346.002,325.200 344.968,325.200 342.187 C 325.200 337.728,324.669 338.123,331.000 337.867 C 337.961 337.585,337.579 337.956,337.857 331.200 C 338.143 324.240,337.769 324.806,342.108 324.767 C 347.723 324.717,349.776 324.346,350.194 323.303 C 350.349 322.917,350.570 320.350,350.685 317.600 C 350.937 311.562,350.362 312.137,356.400 311.885 C 363.988 311.568,363.305 312.865,363.506 298.400 C 363.594 292.130,363.785 286.887,363.933 286.749 C 364.080 286.610,366.540 286.399,369.400 286.280 C 375.018 286.045,375.770 285.891,376.257 284.869 C 376.432 284.501,376.637 276.100,376.713 266.200 C 376.788 256.300,376.974 248.086,377.125 247.947 C 377.276 247.808,379.650 247.600,382.400 247.485 C 387.794 247.260,388.568 247.095,389.056 246.069 C 389.231 245.701,389.438 237.443,389.515 227.717 C 389.665 208.737,389.455 206.175,387.585 204.184 C 386.439 202.964,386.439 197.436,387.585 196.216 C 389.455 194.225,389.665 191.663,389.515 172.683 C 389.438 162.957,389.231 154.699,389.056 154.331 C 388.568 153.305,387.794 153.140,382.400 152.915 C 379.650 152.800,377.276 152.592,377.125 152.453 C 376.974 152.314,376.788 144.100,376.713 134.200 C 376.637 124.300,376.432 115.899,376.257 115.531 C 375.770 114.509,375.018 114.355,369.400 114.120 C 366.540 114.001,364.080 113.790,363.933 113.651 C 363.785 113.513,363.594 108.270,363.506 102.000 C 363.305 87.535,363.988 88.832,356.400 88.515 C 350.362 88.263,350.937 88.838,350.685 82.800 C 350.570 80.050,350.349 77.483,350.194 77.097 C 349.776 76.054,347.723 75.683,342.108 75.633 C 337.769 75.594,338.143 76.160,337.857 69.200 C 337.579 62.444,337.961 62.815,331.000 62.533 C 324.669 62.277,325.200 62.672,325.200 58.213 C 325.200 55.432,325.065 54.398,324.700 54.394 C 324.367 54.390,324.400 54.258,324.800 54.000 C 325.200 53.742,325.233 53.610,324.900 53.606 C 324.624 53.603,324.397 53.107,324.394 52.500 C 324.381 50.192,323.196 49.762,316.497 49.630 C 311.743 49.536,312.136 50.016,311.885 44.000 C 311.568 36.412,312.865 37.095,298.400 36.894 C 292.130 36.806,286.886 36.615,286.747 36.467 C 286.608 36.320,286.392 33.950,286.267 31.200 C 286.012 25.600,285.812 24.594,284.861 24.140 C 284.497 23.967,276.100 23.763,266.200 23.687 C 256.300 23.612,248.086 23.426,247.947 23.275 C 247.808 23.124,247.600 20.750,247.485 18.000 C 247.260 12.606,247.095 11.832,246.069 11.344 C 245.701 11.169,237.443 10.962,227.717 10.885 C 208.737 10.735,206.175 10.945,204.184 12.815 C 202.968 13.958,197.436 13.961,196.221 12.820 C 194.266 10.983,163.195 9.741,155.496 11.192 M191.720 13.847 C 195.028 15.518,195.633 18.637,194.194 26.600 C 193.797 28.796,193.613 32.794,193.608 39.340 L 193.600 48.880 192.240 50.240 L 190.880 51.600 174.602 51.600 C 154.390 51.600,154.800 51.456,154.800 58.562 C 154.800 64.039,153.151 63.600,173.700 63.603 C 192.854 63.606,192.240 63.525,194.041 66.257 C 195.002 67.714,195.081 73.663,194.200 78.265 C 193.870 79.989,193.600 82.780,193.600 84.467 C 193.600 89.204,193.611 89.200,180.753 89.201 C 167.335 89.203,166.405 89.707,166.401 96.969 C 166.399 102.314,167.109 102.000,155.038 102.001 C 141.751 102.003,140.805 102.520,140.801 109.769 C 140.799 114.603,140.606 114.800,135.838 114.801 C 129.684 114.804,128.004 116.512,128.001 122.769 C 127.999 127.863,127.865 128.000,122.838 128.001 C 116.528 128.004,114.804 129.670,114.801 135.769 C 114.799 140.603,114.606 140.800,109.838 140.801 C 102.518 140.805,102.003 141.734,102.001 154.969 C 102.000 167.086,102.298 166.399,97.038 166.401 C 89.697 166.405,89.203 167.308,89.201 180.753 C 89.200 193.611,89.204 193.600,84.467 193.600 C 82.780 193.600,79.989 193.870,78.265 194.200 C 73.663 195.081,67.714 195.002,66.257 194.041 C 63.525 192.240,63.606 192.854,63.603 173.700 C 63.600 153.151,64.039 154.800,58.562 154.800 C 51.456 154.800,51.600 154.390,51.600 174.602 L 51.600 190.880 50.240 192.240 L 48.880 193.600 39.340 193.608 C 32.794 193.613,28.796 193.797,26.600 194.194 C 13.435 196.573,13.200 196.226,13.200 174.439 C 13.200 154.529,12.972 155.200,19.734 155.200 C 23.230 155.200,24.759 154.733,25.810 153.346 C 26.274 152.732,26.377 149.681,26.387 136.119 C 26.403 115.582,26.123 116.400,33.149 116.400 C 36.624 116.400,36.778 116.361,37.969 115.169 L 39.200 113.938 39.200 103.949 C 39.200 90.863,39.232 90.800,45.988 90.800 C 51.098 90.800,52.000 89.898,52.000 84.788 C 52.000 78.912,52.907 78.000,58.749 78.000 C 63.957 78.000,64.800 77.134,64.800 71.788 C 64.800 65.643,65.638 64.800,71.749 64.800 C 77.129 64.800,78.000 63.962,78.000 58.788 C 78.000 52.912,78.907 52.000,84.749 52.000 C 89.914 52.000,90.800 51.114,90.800 45.949 C 90.800 39.249,90.896 39.200,103.988 39.200 L 113.938 39.200 115.169 37.969 C 116.361 36.778,116.400 36.624,116.400 33.149 C 116.400 26.123,115.582 26.403,136.119 26.387 C 148.460 26.378,152.752 26.252,153.206 25.887 C 154.754 24.641,155.200 23.270,155.214 19.714 C 155.229 15.922,155.669 14.631,157.244 13.758 C 158.812 12.889,189.983 12.969,191.720 13.847 M243.142 13.770 C 244.727 14.589,245.200 15.984,245.200 19.833 C 245.200 23.268,245.654 24.648,247.194 25.887 C 247.648 26.252,251.948 26.378,264.320 26.387 C 284.876 26.403,284.000 26.100,284.000 33.188 C 284.000 36.619,284.041 36.780,285.231 37.969 L 286.462 39.200 296.451 39.200 C 309.537 39.200,309.600 39.232,309.600 45.988 C 309.600 51.109,310.497 52.000,315.651 52.000 C 321.475 52.000,322.394 52.914,322.409 58.719 C 322.422 63.895,323.402 64.800,328.994 64.800 C 334.721 64.800,335.600 65.730,335.600 71.788 C 335.600 77.134,336.443 78.000,341.651 78.000 C 347.493 78.000,348.400 78.912,348.400 84.788 C 348.400 89.898,349.302 90.800,354.412 90.800 C 361.168 90.800,361.200 90.863,361.200 103.949 L 361.200 113.938 362.431 115.169 C 363.620 116.359,363.781 116.400,367.212 116.400 C 374.302 116.400,374.000 115.526,374.000 136.070 L 374.000 152.580 375.473 153.890 C 376.899 155.159,377.056 155.200,380.454 155.200 C 387.478 155.200,387.200 154.408,387.200 174.400 C 387.200 196.232,386.969 196.573,373.800 194.194 C 371.604 193.797,367.606 193.613,361.060 193.608 L 351.520 193.600 350.160 192.240 L 348.800 190.880 348.800 174.602 C 348.800 154.390,348.944 154.800,341.838 154.800 C 336.361 154.800,336.800 153.151,336.797 173.700 C 336.794 192.854,336.875 192.240,334.143 194.041 C 332.686 195.002,326.737 195.081,322.135 194.200 C 320.411 193.870,317.620 193.600,315.933 193.600 C 311.196 193.600,311.200 193.611,311.199 180.753 C 311.197 167.335,310.693 166.405,303.431 166.401 C 298.086 166.399,298.400 167.109,298.399 155.038 C 298.397 141.751,297.880 140.805,290.631 140.801 C 285.797 140.799,285.600 140.606,285.599 135.838 C 285.596 129.684,283.888 128.004,277.631 128.001 C 272.537 127.999,272.400 127.865,272.399 122.838 C 272.396 116.528,270.730 114.804,264.631 114.801 C 259.797 114.799,259.600 114.606,259.599 109.838 C 259.595 102.518,258.666 102.003,245.431 102.001 C 233.314 102.000,234.001 102.298,233.999 97.038 C 233.995 89.697,233.092 89.203,219.647 89.201 C 206.789 89.200,206.800 89.204,206.800 84.467 C 206.800 82.780,206.530 79.989,206.200 78.265 C 205.319 73.663,205.398 67.714,206.359 66.257 C 208.160 63.525,207.546 63.606,226.700 63.603 C 247.249 63.600,245.600 64.039,245.600 58.562 C 245.600 51.456,246.010 51.600,225.798 51.600 L 209.520 51.600 208.160 50.240 L 206.800 48.880 206.792 39.340 C 206.787 32.794,206.603 28.796,206.206 26.600 C 204.780 18.705,205.369 15.568,208.600 13.865 C 210.309 12.964,241.418 12.879,243.142 13.770 M131.519 65.091 C 129.592 66.287,129.097 67.787,129.257 71.944 C 129.456 77.118,128.645 76.800,141.647 76.800 L 152.342 76.800 153.171 75.746 C 154.392 74.193,154.414 66.414,153.200 65.200 C 152.072 64.072,133.314 63.978,131.519 65.091 M247.200 65.200 C 245.986 66.414,246.008 74.193,247.229 75.746 L 248.058 76.800 258.753 76.800 C 271.755 76.800,270.944 77.118,271.143 71.944 C 271.305 67.747,270.794 66.242,268.814 65.072 C 266.931 63.960,248.330 64.070,247.200 65.200 M105.549 78.273 C 103.105 79.790,102.064 86.864,104.000 88.800 C 105.341 90.141,126.258 90.029,127.530 88.674 C 128.793 87.330,128.845 79.645,127.600 78.400 C 126.486 77.286,107.317 77.176,105.549 78.273 M272.800 78.400 C 271.511 79.689,271.606 87.491,272.926 88.730 C 274.312 90.033,295.105 90.095,296.400 88.800 C 298.369 86.831,297.280 79.729,294.784 78.254 C 292.928 77.158,273.916 77.284,272.800 78.400 M205.160 91.100 L 207.400 92.200 218.400 92.329 C 231.544 92.483,230.800 92.204,230.800 96.982 C 230.800 101.641,234.001 101.200,200.200 101.200 C 166.399 101.200,169.600 101.641,169.600 96.982 C 169.600 92.204,168.856 92.483,182.000 92.329 C 192.961 92.200,193.007 92.196,195.000 91.157 C 197.959 89.613,202.085 89.590,205.160 91.100 M92.749 91.073 C 90.305 92.590,89.264 99.664,91.200 101.600 C 92.489 102.889,100.291 102.794,101.530 101.474 C 102.793 100.130,102.845 92.445,101.600 91.200 C 100.533 90.133,94.405 90.046,92.749 91.073 M298.800 91.200 C 297.511 92.489,297.606 100.291,298.926 101.530 C 300.270 102.793,307.955 102.845,309.200 101.600 C 311.169 99.631,310.080 92.529,307.584 91.054 C 305.853 90.032,299.869 90.131,298.800 91.200 M79.949 103.873 C 77.702 105.268,77.600 105.828,77.600 116.762 C 77.600 129.175,77.205 128.400,83.541 128.400 C 90.780 128.400,92.016 126.246,90.216 116.760 C 89.877 114.973,89.600 111.552,89.600 109.156 C 89.600 103.420,89.408 103.196,84.500 103.211 C 81.976 103.218,80.707 103.403,79.949 103.873 M311.600 104.000 C 310.259 105.341,310.371 126.258,311.726 127.530 C 313.070 128.793,320.755 128.845,322.000 127.600 C 323.116 126.484,323.242 107.472,322.146 105.616 C 320.671 103.120,313.569 102.031,311.600 104.000 M231.600 104.400 C 232.295 105.095,232.400 105.733,232.400 109.247 L 232.400 113.294 233.953 114.847 L 235.506 116.400 245.953 116.400 C 258.818 116.400,258.000 116.003,258.000 122.247 L 258.000 126.494 259.553 128.047 L 261.106 129.600 265.153 129.600 C 270.636 129.600,270.800 129.764,270.800 135.247 L 270.800 139.294 272.353 140.847 L 273.906 142.400 278.153 142.400 C 284.397 142.400,284.000 141.582,284.000 154.447 L 284.000 164.894 285.553 166.447 L 287.106 168.000 291.153 168.000 C 297.478 168.000,296.800 164.131,296.800 200.200 C 296.800 236.269,297.478 232.400,291.153 232.400 L 287.106 232.400 285.553 233.953 L 284.000 235.506 284.000 245.953 C 284.000 258.818,284.397 258.000,278.153 258.000 L 273.906 258.000 272.353 259.553 L 270.800 261.106 270.800 265.153 C 270.800 270.636,270.636 270.800,265.153 270.800 L 261.106 270.800 259.553 272.353 L 258.000 273.906 258.000 278.153 C 258.000 284.397,258.818 284.000,245.953 284.000 L 235.506 284.000 233.953 285.553 L 232.400 287.106 232.400 291.153 C 232.400 297.478,236.269 296.800,200.200 296.800 C 164.131 296.800,168.000 297.478,168.000 291.153 L 168.000 287.106 166.447 285.553 L 164.894 284.000 154.447 284.000 C 141.582 284.000,142.400 284.397,142.400 278.153 L 142.400 273.906 140.847 272.353 L 139.294 270.800 135.247 270.800 C 129.764 270.800,129.600 270.636,129.600 265.153 L 129.600 261.106 128.047 259.553 L 126.494 258.000 122.247 258.000 C 116.003 258.000,116.400 258.818,116.400 245.953 L 116.400 235.506 114.847 233.953 L 113.294 232.400 109.247 232.400 C 102.922 232.400,103.600 236.269,103.600 200.200 C 103.600 164.131,102.922 168.000,109.247 168.000 L 113.294 168.000 114.847 166.447 L 116.400 164.894 116.400 154.447 C 116.400 141.582,116.003 142.400,122.247 142.400 L 126.494 142.400 128.047 140.847 L 129.600 139.294 129.600 135.247 C 129.600 131.733,129.705 131.095,130.400 130.400 C 131.095 129.705,131.733 129.600,135.247 129.600 L 139.294 129.600 140.847 128.047 L 142.400 126.494 142.400 122.247 C 142.400 116.003,141.582 116.400,154.447 116.400 L 164.894 116.400 166.447 114.847 L 168.000 113.294 168.000 109.247 C 168.000 102.922,164.131 103.600,200.200 103.600 C 230.267 103.600,230.814 103.614,231.600 104.400 M165.120 105.680 C 165.768 106.328,165.768 112.872,165.120 113.520 C 164.437 114.203,145.163 114.203,144.480 113.520 C 143.707 112.747,143.849 106.830,144.662 105.931 C 145.486 105.021,164.230 104.790,165.120 105.680 M255.669 105.862 C 256.550 106.660,256.748 112.692,255.920 113.520 C 255.237 114.203,235.963 114.203,235.280 113.520 C 234.981 113.221,234.800 111.742,234.800 109.600 C 234.800 107.458,234.981 105.979,235.280 105.680 C 236.112 104.848,254.732 105.015,255.669 105.862 M139.520 118.480 C 140.171 119.131,140.171 126.069,139.520 126.720 C 139.221 127.019,137.742 127.200,135.600 127.200 C 131.284 127.200,131.200 127.117,131.200 122.851 C 131.200 118.291,131.475 118.000,135.782 118.000 C 137.783 118.000,139.225 118.185,139.520 118.480 M268.469 118.662 C 269.353 119.462,269.553 125.887,268.720 126.720 C 268.421 127.019,266.942 127.200,264.800 127.200 C 260.450 127.200,260.400 127.147,260.400 122.600 C 260.400 120.302,260.577 118.783,260.880 118.480 C 261.653 117.707,267.570 117.849,268.469 118.662 M66.749 129.873 C 64.508 131.265,64.400 131.847,64.400 142.562 C 64.400 154.781,63.981 154.000,70.541 154.000 C 77.995 154.000,79.181 152.062,77.417 142.763 C 77.078 140.975,76.800 137.552,76.800 135.156 C 76.800 129.380,76.636 129.196,71.500 129.211 C 68.791 129.218,67.519 129.396,66.749 129.873 M325.200 129.478 C 323.688 130.018,323.600 130.685,323.600 141.649 L 323.600 152.346 324.762 153.173 C 326.468 154.388,333.992 154.408,335.200 153.200 C 336.316 152.084,336.442 133.471,335.346 131.616 C 334.093 129.496,328.467 128.310,325.200 129.478 M126.720 131.680 C 127.368 132.328,127.368 138.872,126.720 139.520 C 126.417 139.823,124.898 140.000,122.600 140.000 C 118.090 140.000,118.000 139.919,118.000 135.851 C 118.000 131.478,118.285 131.200,122.782 131.200 C 124.938 131.200,126.421 131.381,126.720 131.680 M281.669 131.862 C 282.550 132.660,282.748 138.692,281.920 139.520 C 281.617 139.823,280.098 140.000,277.800 140.000 C 273.253 140.000,273.200 139.950,273.200 135.600 C 273.200 133.458,273.381 131.979,273.680 131.680 C 274.458 130.902,280.767 131.046,281.669 131.862 M113.520 144.480 C 114.203 145.163,114.203 164.437,113.520 165.120 C 113.221 165.419,111.742 165.600,109.600 165.600 C 107.458 165.600,105.979 165.419,105.680 165.120 C 104.848 164.288,105.015 145.668,105.862 144.731 C 106.660 143.850,112.692 143.652,113.520 144.480 M294.469 144.662 C 295.379 145.486,295.610 164.230,294.720 165.120 C 294.421 165.419,292.942 165.600,290.800 165.600 C 286.103 165.600,286.400 166.328,286.400 154.800 C 286.400 147.680,286.533 144.827,286.880 144.480 C 287.653 143.707,293.570 143.849,294.469 144.662 M100.720 170.080 C 101.415 170.775,101.415 229.625,100.720 230.320 C 100.425 230.615,98.983 230.800,96.982 230.800 C 92.204 230.800,92.483 231.544,92.329 218.400 L 92.200 207.400 91.100 205.160 C 90.227 203.383,90.000 202.358,90.000 200.200 C 90.000 198.042,90.227 197.017,91.100 195.240 L 92.200 193.000 92.329 182.000 C 92.483 168.856,92.204 169.600,96.982 169.600 C 98.983 169.600,100.425 169.785,100.720 170.080 M307.309 170.300 C 307.847 170.895,307.961 172.653,308.071 182.000 L 308.200 193.000 309.300 195.240 C 310.173 197.017,310.400 198.042,310.400 200.200 C 310.400 202.358,310.173 203.383,309.300 205.160 L 308.200 207.400 308.071 218.400 C 307.917 231.544,308.196 230.800,303.418 230.800 C 301.417 230.800,299.975 230.615,299.680 230.320 C 298.985 229.625,298.985 170.775,299.680 170.080 C 300.487 169.273,306.538 169.448,307.309 170.300 M26.600 206.206 C 28.796 206.603,32.794 206.787,39.340 206.792 L 48.880 206.800 50.240 208.160 L 51.600 209.520 51.600 225.798 C 51.600 246.010,51.456 245.600,58.562 245.600 C 64.039 245.600,63.600 247.249,63.603 226.700 C 63.606 207.546,63.525 208.160,66.257 206.359 C 67.714 205.398,73.663 205.319,78.265 206.200 C 79.989 206.530,82.780 206.800,84.467 206.800 C 89.204 206.800,89.200 206.789,89.201 219.647 C 89.203 233.065,89.707 233.995,96.969 233.999 C 102.314 234.001,102.000 233.291,102.001 245.362 C 102.003 258.649,102.520 259.595,109.769 259.599 C 114.603 259.601,114.800 259.794,114.801 264.562 C 114.804 270.716,116.512 272.396,122.769 272.399 C 127.863 272.401,128.000 272.535,128.001 277.562 C 128.004 283.872,129.670 285.596,135.769 285.599 C 140.603 285.601,140.800 285.794,140.801 290.562 C 140.805 297.882,141.734 298.397,154.969 298.399 C 167.086 298.400,166.399 298.102,166.401 303.362 C 166.405 310.703,167.308 311.197,180.753 311.199 C 193.611 311.200,193.600 311.196,193.600 315.933 C 193.600 317.620,193.870 320.411,194.200 322.135 C 195.081 326.737,195.002 332.686,194.041 334.143 C 192.240 336.875,192.854 336.794,173.700 336.797 C 153.151 336.800,154.800 336.361,154.800 341.838 C 154.800 348.944,154.390 348.800,174.602 348.800 L 190.880 348.800 192.240 350.160 L 193.600 351.520 193.608 361.060 C 193.613 367.606,193.797 371.604,194.194 373.800 C 196.573 386.969,196.232 387.200,174.400 387.200 C 154.445 387.200,155.200 387.461,155.200 380.567 C 155.200 377.132,154.746 375.752,153.206 374.513 C 152.752 374.148,148.452 374.022,136.080 374.013 C 115.524 373.997,116.400 374.300,116.400 367.212 C 116.400 363.781,116.359 363.620,115.169 362.431 L 113.938 361.200 103.949 361.200 C 90.863 361.200,90.800 361.168,90.800 354.412 C 90.800 349.302,89.898 348.400,84.788 348.400 C 78.912 348.400,78.000 347.493,78.000 341.651 C 78.000 336.443,77.134 335.600,71.788 335.600 C 65.643 335.600,64.800 334.762,64.800 328.651 C 64.800 323.271,63.962 322.400,58.788 322.400 C 52.912 322.400,52.000 321.493,52.000 315.651 C 52.000 310.497,51.109 309.600,45.988 309.600 C 39.232 309.600,39.200 309.537,39.200 296.451 L 39.200 286.462 37.969 285.231 C 36.780 284.041,36.619 284.000,33.188 284.000 C 26.100 284.000,26.403 284.876,26.387 264.320 C 26.377 250.725,26.275 247.668,25.810 247.054 C 24.759 245.667,23.230 245.200,19.734 245.200 C 12.972 245.200,13.200 245.871,13.200 225.961 C 13.200 204.174,13.435 203.827,26.600 206.206 M334.143 206.359 C 336.875 208.160,336.794 207.546,336.797 226.700 C 336.800 247.249,336.361 245.600,341.838 245.600 C 348.944 245.600,348.800 246.010,348.800 225.798 L 348.800 209.520 350.160 208.160 L 351.520 206.800 361.060 206.792 C 367.606 206.787,371.604 206.603,373.800 206.206 C 386.965 203.827,387.200 204.174,387.200 225.961 C 387.200 245.935,387.456 245.200,380.493 245.200 C 377.051 245.200,376.901 245.239,375.473 246.510 L 374.000 247.820 374.000 264.330 C 374.000 284.874,374.302 284.000,367.212 284.000 C 363.781 284.000,363.620 284.041,362.431 285.231 L 361.200 286.462 361.200 296.451 C 361.200 309.537,361.168 309.600,354.412 309.600 C 349.291 309.600,348.400 310.497,348.400 315.651 C 348.400 321.493,347.488 322.400,341.612 322.400 C 336.438 322.400,335.600 323.271,335.600 328.651 C 335.600 334.684,334.724 335.600,328.955 335.600 C 323.394 335.600,322.422 336.509,322.409 341.720 C 322.394 347.488,321.466 348.400,315.612 348.400 C 310.502 348.400,309.600 349.302,309.600 354.412 C 309.600 361.168,309.537 361.200,296.451 361.200 L 286.462 361.200 285.231 362.431 C 284.041 363.620,284.000 363.781,284.000 367.212 C 284.000 374.300,284.876 373.997,264.320 374.013 C 251.948 374.022,247.648 374.148,247.194 374.513 C 245.654 375.752,245.200 377.132,245.200 380.567 C 245.200 387.461,245.955 387.200,226.000 387.200 C 204.168 387.200,203.827 386.969,206.206 373.800 C 206.603 371.604,206.787 367.606,206.792 361.060 L 206.800 351.520 208.160 350.160 L 209.520 348.800 225.798 348.800 C 246.010 348.800,245.600 348.944,245.600 341.838 C 245.600 336.361,247.249 336.800,226.700 336.797 C 207.546 336.794,208.160 336.875,206.359 334.143 C 205.398 332.686,205.319 326.737,206.200 322.135 C 206.530 320.411,206.800 317.620,206.800 315.933 C 206.800 311.196,206.789 311.200,219.647 311.199 C 233.065 311.197,233.995 310.693,233.999 303.431 C 234.001 298.086,233.291 298.400,245.362 298.399 C 258.649 298.397,259.595 297.880,259.599 290.631 C 259.601 285.797,259.794 285.600,264.562 285.599 C 270.716 285.596,272.396 283.888,272.399 277.631 C 272.401 272.537,272.535 272.400,277.562 272.399 C 283.872 272.396,285.596 270.730,285.599 264.631 C 285.601 259.797,285.794 259.600,290.562 259.599 C 297.882 259.595,298.397 258.666,298.399 245.431 C 298.400 233.314,298.102 234.001,303.362 233.999 C 310.703 233.995,311.197 233.092,311.199 219.647 C 311.200 210.061,311.246 209.419,312.033 208.147 L 312.865 206.800 316.133 206.775 C 317.930 206.762,320.570 206.509,322.000 206.215 C 326.155 205.358,332.743 205.436,334.143 206.359 M113.520 235.280 C 114.203 235.963,114.203 255.237,113.520 255.920 C 112.747 256.693,106.830 256.551,105.931 255.738 C 105.021 254.914,104.790 236.170,105.680 235.280 C 105.979 234.981,107.458 234.800,109.600 234.800 C 111.742 234.800,113.221 234.981,113.520 235.280 M294.720 235.280 C 295.552 236.112,295.385 254.732,294.538 255.669 C 293.740 256.550,287.708 256.748,286.880 255.920 C 286.533 255.573,286.400 252.720,286.400 245.600 C 286.400 234.072,286.103 234.800,290.800 234.800 C 292.942 234.800,294.421 234.981,294.720 235.280 M65.200 247.200 C 64.084 248.316,63.958 266.929,65.054 268.784 C 66.533 271.288,74.009 272.391,76.000 270.400 C 77.340 269.060,77.228 248.542,75.874 247.270 C 74.527 246.004,66.449 245.951,65.200 247.200 M324.700 247.246 L 323.600 248.067 323.600 258.757 C 323.600 271.754,323.282 270.944,328.456 271.143 C 335.692 271.421,336.000 270.879,336.000 257.838 C 336.000 245.659,336.379 246.394,330.100 246.413 C 326.400 246.424,325.646 246.540,324.700 247.246 M126.720 260.880 C 127.368 261.528,127.368 268.072,126.720 268.720 C 126.422 269.018,124.954 269.200,122.851 269.200 C 118.291 269.200,118.000 268.925,118.000 264.618 C 118.000 260.473,118.079 260.400,122.600 260.400 C 124.898 260.400,126.417 260.577,126.720 260.880 M281.920 260.880 C 282.213 261.173,282.400 262.602,282.400 264.549 C 282.400 268.922,282.115 269.200,277.618 269.200 C 273.275 269.200,273.200 269.126,273.200 264.800 C 273.200 260.450,273.253 260.400,277.800 260.400 C 280.098 260.400,281.617 260.577,281.920 260.880 M78.400 272.800 C 77.284 273.916,77.158 292.928,78.254 294.784 C 79.729 297.280,86.831 298.369,88.800 296.400 C 90.141 295.059,90.029 274.142,88.674 272.870 C 87.330 271.607,79.645 271.555,78.400 272.800 M311.670 272.926 C 310.367 274.312,310.305 295.105,311.600 296.400 C 313.569 298.369,320.671 297.280,322.146 294.784 C 323.242 292.928,323.116 273.916,322.000 272.800 C 320.711 271.511,312.909 271.606,311.670 272.926 M139.520 273.680 C 140.171 274.331,140.171 281.269,139.520 281.920 C 139.227 282.213,137.798 282.400,135.851 282.400 C 131.478 282.400,131.200 282.115,131.200 277.618 C 131.200 273.275,131.274 273.200,135.600 273.200 C 137.742 273.200,139.221 273.381,139.520 273.680 M268.720 273.680 C 269.018 273.978,269.200 275.446,269.200 277.549 C 269.200 282.109,268.925 282.400,264.618 282.400 C 260.473 282.400,260.400 282.321,260.400 277.800 C 260.400 273.253,260.450 273.200,264.800 273.200 C 266.942 273.200,268.421 273.381,268.720 273.680 M165.120 286.880 C 165.768 287.528,165.768 294.072,165.120 294.720 C 164.288 295.552,145.668 295.385,144.731 294.538 C 143.850 293.740,143.652 287.708,144.480 286.880 C 144.827 286.533,147.680 286.400,154.800 286.400 C 161.920 286.400,164.773 286.533,165.120 286.880 M255.920 286.880 C 256.693 287.653,256.551 293.570,255.738 294.469 C 254.914 295.379,236.170 295.610,235.280 294.720 C 234.981 294.421,234.800 292.942,234.800 290.800 C 234.800 286.103,234.072 286.400,245.600 286.400 C 252.720 286.400,255.573 286.533,255.920 286.880 M91.200 298.800 C 90.131 299.869,90.032 305.853,91.054 307.584 C 92.529 310.080,99.631 311.169,101.600 309.200 C 102.889 307.911,102.794 300.109,101.474 298.870 C 100.130 297.607,92.445 297.555,91.200 298.800 M298.870 298.926 C 297.607 300.270,297.555 307.955,298.800 309.200 C 299.869 310.269,305.853 310.368,307.584 309.346 C 310.080 307.871,311.169 300.769,309.200 298.800 C 307.911 297.511,300.109 297.606,298.870 298.926 M230.320 299.680 C 230.615 299.975,230.800 301.417,230.800 303.418 C 230.800 308.196,231.544 307.917,218.400 308.071 L 207.400 308.200 205.160 309.300 C 203.383 310.173,202.358 310.400,200.200 310.400 C 198.042 310.400,197.017 310.173,195.240 309.300 L 193.000 308.200 182.000 308.071 C 168.856 307.917,169.600 308.196,169.600 303.418 C 169.600 301.417,169.785 299.975,170.080 299.680 C 170.775 298.985,229.625 298.985,230.320 299.680 M104.000 311.600 C 102.031 313.569,103.120 320.671,105.616 322.146 C 107.472 323.242,126.484 323.116,127.600 322.000 C 128.889 320.711,128.794 312.909,127.474 311.670 C 126.088 310.367,105.295 310.305,104.000 311.600 M272.870 311.726 C 271.607 313.070,271.555 320.755,272.800 322.000 C 273.916 323.116,292.928 323.242,294.784 322.146 C 297.280 320.671,298.369 313.569,296.400 311.600 C 295.059 310.259,274.142 310.371,272.870 311.726 M130.176 324.168 C 128.045 325.725,129.070 333.842,131.586 335.328 C 133.469 336.440,152.070 336.330,153.200 335.200 C 154.414 333.986,154.392 326.207,153.171 324.654 L 152.342 323.600 141.647 323.600 C 133.045 323.600,130.801 323.711,130.176 324.168 M247.229 324.654 C 246.506 325.573,246.400 326.263,246.400 330.054 C 246.400 336.387,245.655 336.000,257.838 336.000 C 270.879 336.000,271.421 335.692,271.143 328.456 C 270.944 323.282,271.755 323.600,258.753 323.600 L 248.058 323.600 247.229 324.654 " stroke="none" fill="#24343c" fill-rule="evenodd"></path><path id="path2" d="M157.871 15.862 C 157.536 16.197,157.521 23.863,157.852 25.100 L 158.093 26.000 174.395 26.000 L 190.696 26.000 191.169 24.300 C 191.429 23.365,191.587 21.070,191.521 19.200 L 191.400 15.800 174.771 15.696 C 165.625 15.638,158.020 15.713,157.871 15.862 M209.071 15.862 C 208.621 16.312,208.767 22.796,209.263 24.454 L 209.727 26.000 226.045 26.000 L 242.364 26.000 242.603 24.700 C 242.734 23.985,242.787 21.690,242.721 19.600 L 242.600 15.800 225.971 15.696 C 216.825 15.638,209.220 15.713,209.071 15.862 M119.067 29.067 C 118.733 29.400,118.713 37.307,119.043 38.167 C 119.259 38.730,121.107 38.800,135.764 38.800 L 152.243 38.800 153.522 37.481 C 155.037 35.917,155.523 29.563,154.167 29.043 C 153.301 28.710,119.400 28.733,119.067 29.067 M246.100 29.063 C 244.840 29.576,245.474 36.121,246.919 37.522 L 248.238 38.800 264.711 38.800 L 281.185 38.800 281.409 37.900 C 281.533 37.405,281.581 35.200,281.517 33.000 L 281.400 29.000 264.000 28.929 C 254.430 28.891,246.375 28.951,246.100 29.063 M93.467 41.867 C 93.133 42.200,93.113 50.107,93.443 50.967 C 93.655 51.521,94.925 51.600,103.564 51.600 L 113.443 51.600 114.722 50.281 C 116.237 48.717,116.723 42.363,115.367 41.843 C 114.502 41.511,93.800 41.533,93.467 41.867 M284.900 41.862 C 283.641 42.378,284.274 48.921,285.719 50.322 L 287.038 51.600 296.911 51.600 L 306.785 51.600 307.009 50.700 C 307.133 50.205,307.181 48.000,307.117 45.800 L 307.000 41.800 296.200 41.728 C 290.260 41.689,285.175 41.749,284.900 41.862 M80.667 54.667 C 80.333 55.000,80.313 62.907,80.643 63.767 C 81.176 65.156,87.616 64.635,89.122 63.081 C 90.637 61.517,91.123 55.163,89.767 54.643 C 88.907 54.313,81.000 54.333,80.667 54.667 M310.500 54.659 C 310.154 54.802,310.000 55.942,310.000 58.355 C 310.000 63.371,311.040 64.400,316.111 64.400 C 320.246 64.400,320.093 64.633,319.917 58.600 L 319.800 54.600 315.400 54.525 C 312.980 54.484,310.775 54.544,310.500 54.659 M157.680 67.280 C 157.091 67.869,157.021 75.078,157.590 76.574 L 157.980 77.600 174.351 77.600 L 190.722 77.600 191.161 76.340 C 191.764 74.609,191.734 67.894,191.120 67.280 C 190.430 66.590,158.370 66.590,157.680 67.280 M209.280 67.280 C 208.666 67.894,208.636 74.609,209.239 76.340 L 209.678 77.600 226.049 77.600 L 242.420 77.600 242.810 76.574 C 243.379 75.078,243.309 67.869,242.720 67.280 C 242.030 66.590,209.970 66.590,209.280 67.280 M67.467 67.467 C 67.133 67.800,67.112 76.106,67.443 76.967 C 67.640 77.481,68.382 77.600,71.401 77.600 L 75.117 77.600 76.359 76.186 C 77.840 74.498,78.296 67.953,76.967 67.443 C 76.106 67.112,67.800 67.133,67.467 67.467 M323.300 67.459 C 322.952 67.603,322.800 68.768,322.800 71.286 L 322.800 74.906 324.228 76.253 C 325.630 77.575,325.724 77.600,329.221 77.600 C 333.470 77.600,333.291 77.876,333.117 71.600 L 333.000 67.400 328.400 67.325 C 325.870 67.284,323.575 67.344,323.300 67.459 M132.080 80.480 C 131.492 81.068,131.423 87.883,131.990 89.374 L 132.380 90.400 142.312 90.400 L 152.243 90.400 153.522 89.081 C 155.332 87.213,155.511 81.051,153.774 80.390 C 152.219 79.799,132.680 79.880,132.080 80.480 M246.500 80.412 C 244.854 81.074,245.159 87.416,246.919 89.122 L 248.238 90.400 258.129 90.400 L 268.020 90.400 268.410 89.374 C 268.977 87.883,268.908 81.068,268.320 80.480 C 267.739 79.899,247.929 79.838,246.500 80.412 M54.667 80.667 C 54.333 81.000,54.313 88.907,54.643 89.767 C 55.176 91.156,61.616 90.635,63.122 89.081 C 64.637 87.517,65.123 81.163,63.767 80.643 C 62.907 80.313,55.000 80.333,54.667 80.667 M336.500 80.659 C 336.154 80.802,336.000 81.942,336.000 84.355 C 336.000 89.371,337.040 90.400,342.111 90.400 C 346.246 90.400,346.093 90.633,345.917 84.600 L 345.800 80.600 341.400 80.525 C 338.980 80.484,336.775 80.544,336.500 80.659 M106.080 93.280 C 105.492 93.868,105.423 100.683,105.990 102.174 L 106.380 103.200 116.512 103.200 L 126.643 103.200 127.922 101.881 C 129.732 100.013,129.911 93.851,128.174 93.190 C 126.618 92.599,106.680 92.680,106.080 93.280 M272.100 93.212 C 270.454 93.874,270.759 100.216,272.519 101.922 L 273.838 103.200 283.929 103.200 L 294.020 103.200 294.410 102.174 C 294.977 100.683,294.908 93.868,294.320 93.280 C 293.739 92.699,273.529 92.638,272.100 93.212 M41.867 93.467 C 41.533 93.800,41.511 114.502,41.843 115.367 C 42.376 116.756,48.816 116.235,50.322 114.681 L 51.600 113.362 51.600 103.524 C 51.600 94.922,51.521 93.655,50.967 93.443 C 50.107 93.113,42.200 93.133,41.867 93.467 M349.300 93.459 C 348.919 93.617,348.800 96.022,348.800 103.555 L 348.800 113.443 350.119 114.722 C 351.397 115.960,351.547 116.000,354.911 116.000 C 359.205 116.000,358.856 117.117,358.712 103.800 L 358.600 93.400 354.200 93.325 C 351.780 93.284,349.575 93.344,349.300 93.459 M93.280 106.080 C 92.667 106.693,92.637 113.014,93.239 114.740 L 93.678 116.000 97.161 116.000 C 102.176 116.000,103.200 114.960,103.200 109.871 C 103.200 106.492,103.167 106.368,102.174 105.990 C 100.683 105.423,93.868 105.492,93.280 106.080 M298.100 106.012 L 297.200 106.374 297.200 116.509 L 297.200 126.643 298.519 127.922 C 300.387 129.732,306.549 129.911,307.210 128.174 C 307.801 126.618,307.720 106.680,307.120 106.080 C 306.551 105.511,299.480 105.458,298.100 106.012 M29.067 119.067 C 28.733 119.400,28.710 153.301,29.043 154.167 C 29.576 155.556,36.016 155.035,37.522 153.481 L 38.800 152.162 38.800 135.724 C 38.800 121.103,38.730 119.259,38.167 119.043 C 37.307 118.713,29.400 118.733,29.067 119.067 M362.100 119.059 C 361.711 119.220,361.600 122.942,361.600 135.755 L 361.600 152.243 362.919 153.522 C 364.695 155.242,371.009 155.524,371.404 153.900 C 371.524 153.405,371.572 145.350,371.511 136.000 L 371.400 119.000 367.000 118.925 C 364.580 118.884,362.375 118.944,362.100 119.059 M80.480 132.080 C 79.867 132.693,79.837 139.014,80.439 140.740 L 80.878 142.000 84.361 142.000 C 89.354 142.000,90.400 140.951,90.400 135.945 C 90.400 132.672,90.357 132.509,89.381 132.064 C 88.010 131.440,81.108 131.452,80.480 132.080 M310.900 132.012 C 310.001 132.374,310.000 132.380,310.000 142.309 L 310.000 152.243 311.319 153.522 C 313.187 155.332,319.349 155.511,320.010 153.774 C 320.601 152.219,320.520 132.680,319.920 132.080 C 319.351 131.511,312.280 131.458,310.900 132.012 M67.280 157.680 C 66.590 158.370,66.590 190.430,67.280 191.120 C 67.894 191.734,74.609 191.764,76.340 191.161 L 77.600 190.722 77.600 174.425 L 77.600 158.128 76.581 157.664 C 75.207 157.038,67.909 157.051,67.280 157.680 M323.700 157.612 L 322.800 157.974 322.800 174.368 L 322.800 190.762 324.300 191.179 C 326.397 191.761,332.520 191.720,333.120 191.120 C 333.810 190.430,333.810 158.370,333.120 157.680 C 332.550 157.110,325.084 157.056,323.700 157.612 M15.783 158.100 C 15.677 158.376,15.638 165.981,15.695 175.000 L 15.800 191.400 19.299 191.516 C 21.224 191.579,23.519 191.437,24.399 191.200 L 26.000 190.769 26.000 174.427 C 26.000 159.895,25.930 158.059,25.367 157.843 C 24.097 157.355,15.985 157.573,15.783 158.100 M375.100 157.870 C 374.448 158.046,374.400 159.174,374.400 174.377 L 374.400 190.696 376.100 191.169 C 377.035 191.429,379.330 191.587,381.200 191.521 L 384.600 191.400 384.600 174.600 L 384.600 157.800 380.200 157.740 C 377.780 157.707,375.485 157.766,375.100 157.870 M15.783 209.300 C 15.677 209.576,15.638 217.181,15.695 226.200 L 15.800 242.600 20.000 242.717 C 22.310 242.781,24.605 242.732,25.100 242.609 L 26.000 242.385 26.000 226.011 L 26.000 209.638 24.500 209.221 C 22.318 208.615,16.024 208.672,15.783 209.300 M67.280 209.280 C 66.590 209.970,66.590 242.030,67.280 242.720 C 67.869 243.309,75.078 243.379,76.574 242.810 L 77.600 242.420 77.600 226.049 L 77.600 209.678 76.340 209.239 C 74.609 208.636,67.894 208.666,67.280 209.280 M324.100 209.248 L 322.800 209.623 322.800 226.021 L 322.800 242.420 323.826 242.810 C 325.322 243.379,332.531 243.309,333.120 242.720 C 333.810 242.030,333.810 209.970,333.120 209.280 C 332.546 208.706,326.056 208.683,324.100 209.248 M375.700 209.292 L 374.400 209.716 374.400 226.040 L 374.400 242.364 375.700 242.603 C 376.415 242.734,378.710 242.787,380.800 242.721 L 384.600 242.600 384.600 225.800 L 384.600 209.000 380.800 208.934 C 378.710 208.898,376.415 209.059,375.700 209.292 M28.996 246.500 C 28.876 246.995,28.828 255.050,28.889 264.400 L 29.000 281.400 33.000 281.517 C 35.200 281.581,37.405 281.533,37.900 281.409 L 38.800 281.185 38.800 264.671 L 38.800 248.157 37.481 246.878 C 35.705 245.158,29.391 244.876,28.996 246.500 M80.390 246.626 C 79.799 248.181,79.880 267.720,80.480 268.320 C 81.068 268.908,87.883 268.977,89.374 268.410 L 90.400 268.020 90.400 258.088 L 90.400 248.157 89.081 246.878 C 87.213 245.068,81.051 244.889,80.390 246.626 M311.278 246.919 L 310.000 248.238 310.000 258.129 L 310.000 268.020 311.026 268.410 C 312.517 268.977,319.332 268.908,319.920 268.320 C 320.520 267.720,320.601 248.181,320.010 246.626 C 319.337 244.857,313.073 245.067,311.278 246.919 M362.878 246.919 L 361.600 248.238 361.600 264.711 L 361.600 281.185 362.500 281.409 C 362.995 281.533,365.200 281.581,367.400 281.517 L 371.400 281.400 371.511 264.400 C 371.647 243.569,372.062 245.600,367.671 245.600 C 364.221 245.600,364.134 245.624,362.878 246.919 M93.190 272.226 C 92.599 273.782,92.680 293.720,93.280 294.320 C 93.868 294.908,100.683 294.977,102.174 294.410 L 103.200 294.020 103.200 283.888 L 103.200 273.757 101.881 272.478 C 100.013 270.668,93.851 270.489,93.190 272.226 M298.478 272.519 L 297.200 273.838 297.200 283.929 L 297.200 294.020 298.226 294.410 C 299.717 294.977,306.532 294.908,307.120 294.320 C 307.720 293.720,307.801 273.782,307.210 272.226 C 306.537 270.457,300.273 270.667,298.478 272.519 M41.795 285.300 C 41.674 285.795,41.626 290.880,41.688 296.600 L 41.800 307.000 45.800 307.117 C 48.000 307.181,50.205 307.133,50.700 307.009 L 51.600 306.785 51.600 296.871 L 51.600 286.957 50.281 285.678 C 48.505 283.958,42.192 283.676,41.795 285.300 M350.078 285.719 L 348.800 287.038 348.800 296.911 L 348.800 306.785 349.700 307.009 C 350.195 307.133,352.400 307.181,354.600 307.117 L 358.600 307.000 358.712 296.600 C 358.857 283.273,359.211 284.400,354.871 284.400 C 351.421 284.400,351.334 284.424,350.078 285.719 M105.990 298.226 C 105.423 299.717,105.492 306.532,106.080 307.120 C 106.680 307.720,126.618 307.801,128.174 307.210 C 129.943 306.537,129.733 300.273,127.881 298.478 L 126.562 297.200 116.471 297.200 L 106.380 297.200 105.990 298.226 M272.478 298.519 C 270.668 300.387,270.489 306.549,272.226 307.210 C 273.782 307.801,293.720 307.720,294.320 307.120 C 294.908 306.532,294.977 299.717,294.410 298.226 L 294.020 297.200 283.888 297.200 L 273.757 297.200 272.478 298.519 M54.591 310.900 C 54.467 311.395,54.419 313.600,54.483 315.800 L 54.600 319.800 58.600 319.917 C 64.639 320.093,64.400 320.252,64.400 316.071 C 64.400 311.026,63.367 310.000,58.289 310.000 C 55.020 310.000,54.802 310.053,54.591 310.900 M131.990 311.026 C 131.423 312.517,131.492 319.332,132.080 319.920 C 132.680 320.520,152.219 320.601,153.774 320.010 C 155.543 319.337,155.333 313.073,153.481 311.278 L 152.162 310.000 142.271 310.000 L 132.380 310.000 131.990 311.026 M246.878 311.319 C 245.068 313.187,244.889 319.349,246.626 320.010 C 248.181 320.601,267.720 320.520,268.320 319.920 C 268.908 319.332,268.977 312.517,268.410 311.026 L 268.020 310.000 258.088 310.000 L 248.157 310.000 246.878 311.319 M337.278 311.319 C 336.040 312.597,336.000 312.747,336.000 316.111 C 336.000 320.246,335.767 320.093,341.800 319.917 L 345.800 319.800 345.917 315.800 C 346.093 309.761,346.252 310.000,342.071 310.000 C 338.621 310.000,338.534 310.024,337.278 311.319 M67.391 323.700 C 67.268 324.195,67.219 326.490,67.283 328.800 L 67.400 333.000 71.600 333.117 C 77.878 333.291,77.600 333.472,77.600 329.206 C 77.600 325.774,77.549 325.570,76.359 324.214 L 75.117 322.800 71.366 322.800 C 67.809 322.800,67.604 322.847,67.391 323.700 M157.590 323.826 C 157.021 325.322,157.091 332.531,157.680 333.120 C 158.370 333.810,190.430 333.810,191.120 333.120 C 191.734 332.506,191.764 325.791,191.161 324.060 L 190.722 322.800 174.351 322.800 L 157.980 322.800 157.590 323.826 M209.239 324.060 C 208.636 325.791,208.666 332.506,209.280 333.120 C 209.970 333.810,242.030 333.810,242.720 333.120 C 243.309 332.531,243.379 325.322,242.810 323.826 L 242.420 322.800 226.049 322.800 L 209.678 322.800 209.239 324.060 M324.228 324.147 L 322.800 325.494 322.800 329.140 C 322.800 333.482,322.511 333.291,328.800 333.117 L 333.000 333.000 333.117 328.800 C 333.291 322.524,333.470 322.800,329.221 322.800 C 325.724 322.800,325.630 322.825,324.228 324.147 M80.591 336.900 C 80.467 337.395,80.419 339.600,80.483 341.800 L 80.600 345.800 84.600 345.917 C 90.639 346.093,90.400 346.252,90.400 342.071 C 90.400 337.026,89.367 336.000,84.289 336.000 C 81.020 336.000,80.802 336.053,80.591 336.900 M311.278 337.319 C 310.040 338.597,310.000 338.747,310.000 342.111 C 310.000 346.246,309.767 346.093,315.800 345.917 L 319.800 345.800 319.917 341.800 C 320.093 335.761,320.252 336.000,316.071 336.000 C 312.621 336.000,312.534 336.024,311.278 337.319 M93.391 349.700 C 93.267 350.195,93.219 352.400,93.283 354.600 L 93.400 358.600 103.800 358.712 C 117.127 358.857,116.000 359.211,116.000 354.871 C 116.000 351.421,115.976 351.334,114.681 350.078 L 113.362 348.800 103.489 348.800 L 93.615 348.800 93.391 349.700 M285.678 350.119 C 284.440 351.397,284.400 351.547,284.400 354.911 C 284.400 359.205,283.283 358.856,296.600 358.712 L 307.000 358.600 307.117 354.600 C 307.181 352.400,307.133 350.195,307.009 349.700 L 306.785 348.800 296.871 348.800 L 286.957 348.800 285.678 350.119 M118.991 362.500 C 118.867 362.995,118.819 365.200,118.883 367.400 L 119.000 371.400 136.000 371.511 C 156.831 371.647,154.800 372.062,154.800 367.671 C 154.800 364.221,154.776 364.134,153.481 362.878 L 152.162 361.600 135.689 361.600 L 119.215 361.600 118.991 362.500 M246.878 362.919 C 245.158 364.695,244.876 371.009,246.500 371.404 C 246.995 371.524,255.050 371.572,264.400 371.511 L 281.400 371.400 281.517 367.400 C 281.581 365.200,281.533 362.995,281.409 362.500 L 281.185 361.600 264.671 361.600 L 248.157 361.600 246.878 362.919 M157.797 375.700 C 157.666 376.415,157.613 378.710,157.679 380.800 L 157.800 384.600 174.600 384.600 L 191.400 384.600 191.521 381.200 C 191.587 379.330,191.429 377.035,191.169 376.100 L 190.696 374.400 174.366 374.400 L 158.036 374.400 157.797 375.700 M209.231 376.100 C 208.971 377.035,208.813 379.330,208.879 381.200 L 209.000 384.600 225.800 384.600 L 242.600 384.600 242.721 380.800 C 242.787 378.710,242.734 376.415,242.603 375.700 L 242.364 374.400 226.034 374.400 L 209.704 374.400 209.231 376.100 " stroke="none" fill="#94a4ac" fill-rule="evenodd"></path><path id="path3" d="M170.070 105.726 C 169.311 106.533,169.200 107.108,169.199 110.226 C 169.196 117.248,168.531 117.600,155.290 117.600 C 143.067 117.600,143.600 117.347,143.600 123.146 C 143.600 129.364,142.209 130.796,136.170 130.799 C 131.218 130.801,130.801 131.222,130.799 136.226 C 130.796 142.219,129.352 143.600,123.090 143.600 C 117.355 143.600,117.600 143.071,117.599 155.426 C 117.597 168.589,117.263 169.200,110.090 169.200 C 106.896 169.200,106.452 169.293,105.670 170.126 L 104.800 171.052 104.800 200.256 L 104.800 229.461 105.726 230.330 C 106.533 231.089,107.108 231.200,110.226 231.201 C 117.248 231.204,117.600 231.869,117.600 245.110 C 117.600 257.333,117.347 256.800,123.146 256.800 C 129.364 256.800,130.796 258.191,130.799 264.230 C 130.801 269.166,131.233 269.600,136.146 269.600 C 142.202 269.600,143.596 271.027,143.599 277.230 C 143.601 283.055,143.063 282.800,155.346 282.800 C 168.544 282.800,169.196 283.150,169.199 290.230 C 169.200 293.507,169.290 293.945,170.126 294.730 L 171.052 295.600 200.256 295.600 L 229.461 295.600 230.330 294.674 C 231.089 293.867,231.200 293.292,231.201 290.174 C 231.204 283.152,231.869 282.800,245.110 282.800 C 257.352 282.800,256.799 283.066,256.801 277.174 C 256.804 271.017,258.208 269.600,264.310 269.600 C 269.171 269.600,269.599 269.161,269.601 264.174 C 269.604 258.181,271.048 256.800,277.310 256.800 C 283.045 256.800,282.800 257.329,282.801 244.974 C 282.803 231.811,283.137 231.200,290.310 231.200 C 293.504 231.200,293.948 231.107,294.730 230.274 L 295.600 229.348 295.600 200.144 L 295.600 170.939 294.674 170.070 C 293.870 169.314,293.291 169.200,290.254 169.200 C 283.139 169.200,282.803 168.577,282.801 155.370 C 282.800 143.055,283.056 143.600,277.254 143.600 C 271.036 143.600,269.604 142.209,269.601 136.170 C 269.599 131.193,269.193 130.800,264.054 130.800 C 257.853 130.800,256.800 129.710,256.800 123.290 C 256.800 117.316,257.397 117.600,244.854 117.600 C 231.464 117.600,231.200 117.459,231.200 110.290 C 231.200 106.887,231.114 106.459,230.274 105.670 L 229.348 104.800 200.144 104.800 L 170.939 104.800 170.070 105.726 " stroke="none" fill="#04acf2" fill-rule="evenodd"></path><path id="path4" d="M152.000 4.996 L 152.000 9.992 132.700 10.096 L 113.400 10.200 113.290 16.494 L 113.180 22.789 100.490 22.894 L 87.800 23.000 87.690 29.500 L 87.580 36.000 81.623 36.000 C 73.660 36.000,74.400 35.321,74.400 42.633 L 74.400 48.780 68.100 48.890 L 61.800 49.000 61.690 55.290 L 61.580 61.580 55.290 61.690 L 49.000 61.800 48.890 68.090 L 48.780 74.380 42.490 74.490 L 36.200 74.600 36.090 81.090 L 35.980 87.580 29.490 87.690 L 23.000 87.800 22.894 100.490 L 22.789 113.180 16.494 113.290 L 10.200 113.400 10.096 132.700 L 9.992 152.000 4.996 152.000 L 0.000 152.000 0.000 200.200 L 0.000 248.400 4.996 248.400 L 9.992 248.400 10.096 267.700 L 10.200 287.000 16.494 287.110 L 22.789 287.220 22.894 299.910 L 23.000 312.600 29.490 312.710 L 35.980 312.820 36.090 319.310 L 36.200 325.800 42.490 325.910 L 48.780 326.020 48.890 332.310 L 49.000 338.600 55.290 338.710 L 61.580 338.820 61.690 345.110 L 61.800 351.400 68.100 351.510 L 74.400 351.620 74.400 357.767 C 74.400 365.079,73.660 364.400,81.623 364.400 L 87.580 364.400 87.690 370.900 L 87.800 377.400 100.490 377.506 L 113.180 377.611 113.290 383.906 L 113.400 390.200 132.700 390.304 L 152.000 390.408 152.000 395.204 L 152.000 400.000 200.200 400.000 L 248.400 400.000 248.400 395.204 L 248.400 390.408 267.700 390.304 L 287.000 390.200 287.110 383.906 L 287.220 377.611 299.910 377.506 L 312.600 377.400 312.710 370.910 L 312.820 364.420 319.310 364.310 L 325.800 364.200 325.910 357.910 L 326.020 351.620 332.310 351.510 L 338.600 351.400 338.710 345.110 L 338.820 338.820 345.110 338.710 L 351.400 338.600 351.510 332.310 L 351.620 326.020 357.910 325.910 L 364.200 325.800 364.310 319.310 L 364.420 312.820 370.910 312.710 L 377.400 312.600 377.506 299.910 L 377.611 287.220 383.906 287.110 L 390.200 287.000 390.304 267.700 L 390.408 248.400 395.204 248.400 L 400.000 248.400 400.000 200.200 L 400.000 152.000 395.204 152.000 L 390.408 152.000 390.304 132.700 L 390.200 113.400 383.906 113.290 L 377.611 113.180 377.506 100.490 L 377.400 87.800 370.910 87.690 L 364.420 87.580 364.310 81.090 L 364.200 74.600 357.910 74.490 L 351.620 74.380 351.510 68.090 L 351.400 61.800 345.110 61.690 L 338.820 61.580 338.710 55.290 L 338.600 49.000 332.310 48.890 L 326.020 48.780 325.910 42.490 L 325.800 36.200 319.310 36.090 L 312.820 35.980 312.710 29.490 L 312.600 23.000 299.910 22.894 L 287.220 22.789 287.110 16.494 L 287.000 10.200 267.700 10.096 L 248.400 9.992 248.400 4.996 L 248.400 0.000 200.200 0.000 L 152.000 0.000 152.000 4.996 M192.995 11.414 C 194.313 11.758,195.764 12.391,196.221 12.820 C 197.436 13.961,202.968 13.958,204.184 12.815 C 206.175 10.945,208.737 10.735,227.717 10.885 C 237.443 10.962,245.701 11.169,246.069 11.344 C 247.095 11.832,247.260 12.606,247.485 18.000 C 247.600 20.750,247.808 23.124,247.947 23.275 C 248.086 23.426,256.300 23.612,266.200 23.687 C 276.100 23.763,284.497 23.967,284.861 24.140 C 285.812 24.594,286.012 25.600,286.267 31.200 C 286.392 33.950,286.608 36.320,286.747 36.467 C 286.886 36.615,292.130 36.806,298.400 36.894 C 312.865 37.095,311.568 36.412,311.885 44.000 C 312.136 50.016,311.743 49.536,316.497 49.630 C 323.196 49.762,324.381 50.192,324.394 52.500 C 324.397 53.107,324.624 53.603,324.900 53.606 C 325.233 53.610,325.200 53.742,324.800 54.000 C 324.400 54.258,324.367 54.390,324.700 54.394 C 325.065 54.398,325.200 55.432,325.200 58.213 C 325.200 62.672,324.669 62.277,331.000 62.533 C 337.961 62.815,337.579 62.444,337.857 69.200 C 338.143 76.160,337.769 75.594,342.108 75.633 C 347.723 75.683,349.776 76.054,350.194 77.097 C 350.349 77.483,350.570 80.050,350.685 82.800 C 350.937 88.838,350.362 88.263,356.400 88.515 C 363.988 88.832,363.305 87.535,363.506 102.000 C 363.594 108.270,363.785 113.513,363.933 113.651 C 364.080 113.790,366.540 114.001,369.400 114.120 C 375.018 114.355,375.770 114.509,376.257 115.531 C 376.432 115.899,376.637 124.300,376.713 134.200 C 376.788 144.100,376.974 152.314,377.125 152.453 C 377.276 152.592,379.650 152.800,382.400 152.915 C 387.794 153.140,388.568 153.305,389.056 154.331 C 389.231 154.699,389.438 162.957,389.515 172.683 C 389.665 191.663,389.455 194.225,387.585 196.216 C 386.439 197.436,386.439 202.964,387.585 204.184 C 389.455 206.175,389.665 208.737,389.515 227.717 C 389.438 237.443,389.231 245.701,389.056 246.069 C 388.568 247.095,387.794 247.260,382.400 247.485 C 379.650 247.600,377.276 247.808,377.125 247.947 C 376.974 248.086,376.788 256.300,376.713 266.200 C 376.637 276.100,376.432 284.501,376.257 284.869 C 375.770 285.891,375.018 286.045,369.400 286.280 C 366.540 286.399,364.080 286.610,363.933 286.749 C 363.785 286.887,363.594 292.130,363.506 298.400 C 363.305 312.865,363.988 311.568,356.400 311.885 C 350.362 312.137,350.937 311.562,350.685 317.600 C 350.570 320.350,350.349 322.917,350.194 323.303 C 349.776 324.346,347.723 324.717,342.108 324.767 C 337.769 324.806,338.143 324.240,337.857 331.200 C 337.579 337.956,337.961 337.585,331.000 337.867 C 324.669 338.123,325.200 337.728,325.200 342.187 C 325.200 344.968,325.065 346.002,324.700 346.006 C 324.367 346.010,324.400 346.142,324.800 346.400 C 325.200 346.658,325.233 346.790,324.900 346.794 C 324.624 346.797,324.397 347.293,324.394 347.900 C 324.381 350.208,323.196 350.638,316.497 350.770 C 311.743 350.864,312.136 350.384,311.885 356.400 C 311.568 363.988,312.865 363.305,298.400 363.506 C 292.130 363.594,286.886 363.785,286.747 363.933 C 286.608 364.080,286.392 366.450,286.267 369.200 C 286.012 374.800,285.812 375.806,284.861 376.260 C 284.497 376.433,276.100 376.637,266.200 376.713 C 256.300 376.788,248.086 376.974,247.947 377.125 C 247.808 377.276,247.600 379.650,247.485 382.400 C 247.260 387.794,247.095 388.568,246.069 389.056 C 245.701 389.231,237.443 389.438,227.717 389.515 C 208.737 389.665,206.175 389.455,204.184 387.585 C 202.964 386.439,197.436 386.439,196.216 387.585 C 194.225 389.455,191.663 389.665,172.683 389.515 C 162.957 389.438,154.699 389.231,154.331 389.056 C 153.305 388.568,153.140 387.794,152.915 382.400 C 152.800 379.650,152.592 377.276,152.453 377.125 C 152.314 376.974,144.100 376.788,134.200 376.713 C 124.300 376.637,115.903 376.433,115.539 376.260 C 114.588 375.806,114.388 374.800,114.133 369.200 C 114.008 366.450,113.792 364.080,113.653 363.933 C 113.514 363.785,108.270 363.594,102.000 363.506 C 87.535 363.305,88.832 363.988,88.515 356.400 C 88.263 350.362,88.838 350.937,82.800 350.685 C 75.573 350.383,76.017 350.827,75.715 343.600 C 75.462 337.552,76.066 338.135,69.800 337.887 C 62.388 337.593,62.822 337.993,62.543 331.200 C 62.257 324.240,62.631 324.806,58.292 324.767 C 52.677 324.717,50.624 324.346,50.206 323.303 C 50.051 322.917,49.830 320.350,49.715 317.600 C 49.463 311.562,50.038 312.137,44.000 311.885 C 36.412 311.568,37.095 312.865,36.894 298.400 C 36.806 292.130,36.615 286.886,36.467 286.747 C 36.320 286.608,33.950 286.392,31.200 286.267 C 25.600 286.012,24.594 285.812,24.140 284.861 C 23.967 284.497,23.763 276.100,23.687 266.200 C 23.612 256.300,23.426 248.086,23.275 247.947 C 23.124 247.808,20.750 247.600,18.000 247.485 C 12.606 247.260,11.832 247.095,11.344 246.069 C 11.169 245.701,10.962 237.443,10.885 227.717 C 10.735 208.737,10.945 206.175,12.815 204.184 C 13.961 202.964,13.961 197.436,12.815 196.216 C 10.945 194.225,10.735 191.663,10.885 172.683 C 10.962 162.957,11.169 154.699,11.344 154.331 C 11.832 153.305,12.606 153.140,18.000 152.915 C 20.750 152.800,23.124 152.592,23.275 152.453 C 23.426 152.314,23.612 144.100,23.687 134.200 C 23.763 124.300,23.967 115.903,24.140 115.539 C 24.594 114.588,25.600 114.388,31.200 114.133 C 33.950 114.008,36.320 113.792,36.467 113.653 C 36.615 113.514,36.806 108.270,36.894 102.000 C 37.095 87.535,36.412 88.832,44.000 88.515 C 50.038 88.263,49.463 88.838,49.715 82.800 C 49.830 80.050,50.051 77.483,50.206 77.097 C 50.624 76.054,52.677 75.683,58.292 75.633 C 62.631 75.594,62.257 76.160,62.543 69.200 C 62.822 62.407,62.388 62.807,69.800 62.513 C 76.066 62.265,75.462 62.848,75.715 56.800 C 76.017 49.573,75.573 50.017,82.800 49.715 C 88.838 49.463,88.263 50.038,88.515 44.000 C 88.832 36.412,87.535 37.095,102.000 36.894 C 108.270 36.806,113.514 36.615,113.653 36.467 C 113.792 36.320,114.008 33.950,114.133 31.200 C 114.388 25.600,114.588 24.594,115.539 24.140 C 115.903 23.967,124.300 23.763,134.200 23.687 C 144.100 23.612,152.324 23.426,152.476 23.275 C 152.628 23.124,152.787 21.246,152.830 19.103 C 152.906 15.206,153.281 12.186,153.745 11.722 C 154.817 10.649,189.040 10.381,192.995 11.414 M195.000 91.157 C 193.007 92.196,192.961 92.200,182.000 92.329 C 168.856 92.483,169.600 92.204,169.600 96.982 C 169.600 101.641,166.399 101.200,200.200 101.200 C 234.001 101.200,230.800 101.641,230.800 96.982 C 230.800 92.204,231.544 92.483,218.400 92.329 L 207.400 92.200 205.160 91.100 C 202.085 89.590,197.959 89.613,195.000 91.157 M144.662 105.931 C 143.849 106.830,143.707 112.747,144.480 113.520 C 145.163 114.203,164.437 114.203,165.120 113.520 C 165.768 112.872,165.768 106.328,165.120 105.680 C 164.230 104.790,145.486 105.021,144.662 105.931 M235.280 105.680 C 234.981 105.979,234.800 107.458,234.800 109.600 C 234.800 111.742,234.981 113.221,235.280 113.520 C 235.963 114.203,255.237 114.203,255.920 113.520 C 256.748 112.692,256.550 106.660,255.669 105.862 C 254.732 105.015,236.112 104.848,235.280 105.680 M131.862 118.731 C 131.046 119.633,130.902 125.942,131.680 126.720 C 131.979 127.019,133.458 127.200,135.600 127.200 C 137.742 127.200,139.221 127.019,139.520 126.720 C 140.171 126.069,140.171 119.131,139.520 118.480 C 138.692 117.652,132.660 117.850,131.862 118.731 M260.880 118.480 C 260.577 118.783,260.400 120.302,260.400 122.600 C 260.400 127.147,260.450 127.200,264.800 127.200 C 269.126 127.200,269.200 127.125,269.200 122.782 C 269.200 118.285,268.922 118.000,264.549 118.000 C 262.602 118.000,261.173 118.187,260.880 118.480 M118.662 131.931 C 117.849 132.830,117.707 138.747,118.480 139.520 C 118.783 139.823,120.302 140.000,122.600 140.000 C 124.898 140.000,126.417 139.823,126.720 139.520 C 127.368 138.872,127.368 132.328,126.720 131.680 C 125.887 130.847,119.462 131.047,118.662 131.931 M273.680 131.680 C 273.381 131.979,273.200 133.458,273.200 135.600 C 273.200 139.950,273.253 140.000,277.800 140.000 C 282.321 140.000,282.400 139.927,282.400 135.782 C 282.400 131.475,282.109 131.200,277.549 131.200 C 275.446 131.200,273.978 131.382,273.680 131.680 M105.862 144.731 C 105.015 145.668,104.848 164.288,105.680 165.120 C 105.979 165.419,107.458 165.600,109.600 165.600 C 111.742 165.600,113.221 165.419,113.520 165.120 C 114.203 164.437,114.203 145.163,113.520 144.480 C 112.692 143.652,106.660 143.850,105.862 144.731 M286.880 144.480 C 286.533 144.827,286.400 147.680,286.400 154.800 C 286.400 166.328,286.103 165.600,290.800 165.600 C 292.942 165.600,294.421 165.419,294.720 165.120 C 295.610 164.230,295.379 145.486,294.469 144.662 C 293.570 143.849,287.653 143.707,286.880 144.480 M93.091 170.300 C 92.553 170.895,92.439 172.653,92.329 182.000 L 92.200 193.000 91.100 195.240 C 90.227 197.017,90.000 198.042,90.000 200.200 C 90.000 202.358,90.227 203.383,91.100 205.160 L 92.200 207.400 92.329 218.400 C 92.483 231.544,92.204 230.800,96.982 230.800 C 98.983 230.800,100.425 230.615,100.720 230.320 C 101.415 229.625,101.415 170.775,100.720 170.080 C 99.913 169.273,93.862 169.448,93.091 170.300 M299.680 170.080 C 298.985 170.775,298.985 229.625,299.680 230.320 C 299.975 230.615,301.417 230.800,303.418 230.800 C 308.196 230.800,307.917 231.544,308.071 218.400 L 308.200 207.400 309.300 205.160 C 310.173 203.383,310.400 202.358,310.400 200.200 C 310.400 198.042,310.173 197.017,309.300 195.240 L 308.200 193.000 308.071 182.000 C 307.917 168.856,308.196 169.600,303.418 169.600 C 301.417 169.600,299.975 169.785,299.680 170.080 M105.680 235.280 C 104.790 236.170,105.021 254.914,105.931 255.738 C 106.830 256.551,112.747 256.693,113.520 255.920 C 114.203 255.237,114.203 235.963,113.520 235.280 C 113.221 234.981,111.742 234.800,109.600 234.800 C 107.458 234.800,105.979 234.981,105.680 235.280 M286.880 235.280 C 286.533 235.627,286.400 238.480,286.400 245.600 C 286.400 257.086,286.132 256.400,290.618 256.400 C 295.423 256.400,295.200 256.938,295.200 245.349 C 295.200 234.104,295.490 234.800,290.800 234.800 C 288.658 234.800,287.179 234.981,286.880 235.280 M118.480 260.880 C 117.652 261.708,117.850 267.740,118.731 268.538 C 119.633 269.354,125.942 269.498,126.720 268.720 C 127.368 268.072,127.368 261.528,126.720 260.880 C 126.417 260.577,124.898 260.400,122.600 260.400 C 120.302 260.400,118.783 260.577,118.480 260.880 M273.680 260.880 C 273.381 261.179,273.200 262.658,273.200 264.800 C 273.200 269.126,273.275 269.200,277.618 269.200 C 282.115 269.200,282.400 268.922,282.400 264.549 C 282.400 260.481,282.310 260.400,277.800 260.400 C 275.502 260.400,273.983 260.577,273.680 260.880 M131.680 273.680 C 130.847 274.513,131.047 280.938,131.931 281.738 C 132.830 282.551,138.747 282.693,139.520 281.920 C 140.171 281.269,140.171 274.331,139.520 273.680 C 139.221 273.381,137.742 273.200,135.600 273.200 C 133.458 273.200,131.979 273.381,131.680 273.680 M260.880 273.680 C 260.577 273.983,260.400 275.502,260.400 277.800 C 260.400 282.321,260.473 282.400,264.618 282.400 C 268.925 282.400,269.200 282.109,269.200 277.549 C 269.200 273.283,269.116 273.200,264.800 273.200 C 262.658 273.200,261.179 273.381,260.880 273.680 M144.480 286.880 C 143.652 287.708,143.850 293.740,144.731 294.538 C 145.668 295.385,164.288 295.552,165.120 294.720 C 165.768 294.072,165.768 287.528,165.120 286.880 C 164.773 286.533,161.920 286.400,154.800 286.400 C 147.680 286.400,144.827 286.533,144.480 286.880 M235.280 286.880 C 234.981 287.179,234.800 288.658,234.800 290.800 C 234.800 295.492,234.095 295.200,245.418 295.200 C 256.964 295.200,256.400 295.439,256.400 290.549 C 256.400 286.143,257.069 286.400,245.600 286.400 C 238.480 286.400,235.627 286.533,235.280 286.880 M170.080 299.680 C 169.785 299.975,169.600 301.417,169.600 303.418 C 169.600 308.196,168.856 307.917,182.000 308.071 L 193.000 308.200 195.240 309.300 C 197.017 310.173,198.042 310.400,200.200 310.400 C 202.358 310.400,203.383 310.173,205.160 309.300 L 207.400 308.200 218.400 308.071 C 231.544 307.917,230.800 308.196,230.800 303.418 C 230.800 301.417,230.615 299.975,230.320 299.680 C 229.625 298.985,170.775 298.985,170.080 299.680 " stroke="none" fill="#040404" fill-rule="evenodd"></path></g></svg>